<svg width="683" height="609" viewBox="0 0 683 609" fill="none" xmlns="http://www.w3.org/2000/svg">
<path d="M568.985 222.882H428.171C427.83 222.886 427.504 223.023 427.262 223.264C427.021 223.506 426.884 223.832 426.88 224.173V329.516C426.886 329.856 427.023 330.182 427.264 330.422C427.505 330.663 427.831 330.801 428.171 330.806H568.985C569.327 330.803 569.653 330.666 569.894 330.424C570.136 330.183 570.273 329.857 570.276 329.516C570.918 247.484 570.727 228.872 570.355 224.607C570.317 224.153 570.3 222.862 568.985 222.882ZM441.766 317.887C439.816 319.161 437.928 320.514 436.108 321.965C434.82 322.989 432.986 321.176 434.284 320.141C436.274 318.548 438.333 317.053 440.462 315.657C441.859 314.746 443.149 316.986 441.766 317.887ZM440.189 238.595C437.902 236.493 435.736 234.264 433.7 231.918C432.614 230.672 434.431 228.845 435.524 230.095C437.559 232.44 439.726 234.669 442.012 236.771C443.225 237.895 441.394 239.715 440.189 238.595ZM524.577 284.943H473.352C473.009 284.943 472.681 284.807 472.439 284.565C472.197 284.323 472.061 283.994 472.061 283.652C472.061 283.31 472.197 282.981 472.439 282.739C472.681 282.497 473.009 282.361 473.352 282.361H524.577C524.919 282.361 525.247 282.497 525.489 282.739C525.732 282.981 525.868 283.31 525.868 283.652C525.868 283.994 525.732 284.323 525.489 284.565C525.247 284.807 524.919 284.943 524.577 284.943ZM474.052 273.762H524.198C524.528 273.779 524.839 273.923 525.067 274.162C525.295 274.402 525.422 274.721 525.422 275.051C525.422 275.382 525.295 275.701 525.067 275.94C524.839 276.18 524.528 276.324 524.198 276.341H474.031C473.701 276.324 473.39 276.18 473.162 275.94C472.934 275.701 472.807 275.382 472.807 275.051C472.807 274.721 472.934 274.402 473.162 274.162C473.39 273.923 473.701 273.779 474.031 273.762H474.052ZM524.577 266.666H474.035C473.704 266.649 473.393 266.506 473.165 266.266C472.937 266.026 472.81 265.708 472.81 265.377C472.81 265.046 472.937 264.728 473.165 264.488C473.393 264.248 473.704 264.105 474.035 264.088H524.56C524.89 264.105 525.201 264.248 525.429 264.488C525.657 264.728 525.784 265.046 525.784 265.377C525.784 265.708 525.657 266.026 525.429 266.266C525.201 266.506 524.89 266.649 524.56 266.666H524.577ZM553.324 237.604L561.083 230.31C562.292 229.173 564.119 230.993 562.907 232.133L555.148 239.428C553.908 240.565 552.095 238.741 553.307 237.604H553.324ZM562.183 321.647L555.694 315.767C554.461 314.65 556.292 312.83 557.518 313.943L564.006 319.824C565.222 320.944 563.392 322.761 562.166 321.647H562.183Z" fill="#78B5FF"/>
<path d="M619.371 224.174C619.368 223.833 619.231 223.506 618.989 223.265C618.748 223.024 618.422 222.887 618.08 222.883C588.117 222.668 579.327 222.644 576.588 222.883C575.888 222.941 574.847 223.026 574.881 224.184V329.527C574.885 329.868 575.023 330.193 575.264 330.435C575.505 330.676 575.831 330.813 576.172 330.817H618.098C618.438 330.812 618.764 330.675 619.004 330.434C619.245 330.193 619.383 329.867 619.388 329.527C619.518 310.577 619.505 243.298 619.371 224.174ZM586.731 299.731H606.346C606.677 299.748 606.988 299.891 607.216 300.131C607.444 300.371 607.571 300.689 607.571 301.02C607.571 301.351 607.444 301.669 607.216 301.909C606.988 302.149 606.677 302.292 606.346 302.309H586.731C586.4 302.292 586.089 302.149 585.861 301.909C585.633 301.669 585.506 301.351 585.506 301.02C585.506 300.689 585.633 300.371 585.861 300.131C586.089 299.891 586.4 299.748 586.731 299.731ZM606.346 247.321H586.731C586.388 247.321 586.06 247.185 585.818 246.943C585.576 246.701 585.44 246.372 585.44 246.03C585.44 245.688 585.576 245.359 585.818 245.117C586.06 244.875 586.388 244.739 586.731 244.739H606.346C606.689 244.739 607.017 244.875 607.259 245.117C607.501 245.359 607.637 245.688 607.637 246.03C607.637 246.372 607.501 246.701 607.259 246.943C607.017 247.185 606.689 247.321 606.346 247.321ZM606.346 276.348H586.731C586.388 276.348 586.06 276.212 585.818 275.97C585.576 275.728 585.44 275.4 585.44 275.057C585.44 274.715 585.576 274.387 585.818 274.145C586.06 273.903 586.388 273.767 586.731 273.767H606.346C606.643 273.828 606.91 273.99 607.102 274.225C607.293 274.46 607.398 274.754 607.398 275.057C607.398 275.361 607.293 275.655 607.102 275.89C606.91 276.125 606.643 276.287 606.346 276.348ZM606.346 292.641H586.731C586.4 292.624 586.089 292.481 585.861 292.241C585.633 292.001 585.506 291.683 585.506 291.352C585.506 291.021 585.633 290.703 585.861 290.463C586.089 290.223 586.4 290.08 586.731 290.063H606.346C606.653 290.11 606.933 290.266 607.135 290.502C607.337 290.738 607.448 291.038 607.448 291.349C607.448 291.659 607.337 291.959 607.135 292.195C606.933 292.431 606.653 292.587 606.346 292.634V292.641ZM606.346 266.687H586.731C586.4 266.67 586.089 266.527 585.861 266.287C585.633 266.047 585.506 265.729 585.506 265.398C585.506 265.067 585.633 264.749 585.861 264.509C586.089 264.269 586.4 264.126 586.731 264.109H606.346C606.521 264.1 606.696 264.127 606.86 264.187C607.025 264.248 607.175 264.341 607.302 264.462C607.429 264.583 607.53 264.728 607.599 264.889C607.668 265.05 607.704 265.223 607.704 265.398C607.704 265.573 607.668 265.746 607.599 265.907C607.53 266.068 607.429 266.213 607.302 266.334C607.175 266.455 607.025 266.548 606.86 266.609C606.696 266.67 606.521 266.696 606.346 266.687ZM606.346 257.183H586.731C586.388 257.183 586.06 257.047 585.818 256.805C585.576 256.563 585.44 256.235 585.44 255.892C585.44 255.55 585.576 255.222 585.818 254.98C586.06 254.738 586.388 254.602 586.731 254.602H606.346C606.644 254.659 606.912 254.819 607.104 255.052C607.297 255.286 607.402 255.579 607.402 255.882C607.402 256.185 607.297 256.478 607.104 256.712C606.912 256.946 606.644 257.105 606.346 257.163V257.183Z" fill="#78B5FF"/>
<path d="M619.369 335.974C619.365 335.633 619.228 335.307 618.986 335.066C618.745 334.825 618.42 334.687 618.079 334.683H428.17C427.829 334.686 427.503 334.824 427.262 335.065C427.02 335.306 426.883 335.632 426.88 335.974C426.634 370.622 427.347 374.884 425.514 383.186C424.256 389.117 421.692 394.694 418.008 399.509C414.324 404.325 409.613 408.259 404.218 411.025C397.796 414.521 390.731 416.674 383.451 417.353C375.651 418.566 367.534 419.945 361.175 424.952C344.308 438.229 346.975 459.785 341.173 477.28C341.123 477.471 341.117 477.672 341.156 477.866C341.194 478.06 341.277 478.243 341.397 478.401C341.518 478.558 341.672 478.686 341.849 478.775C342.027 478.863 342.222 478.91 342.42 478.912H532.328C532.609 478.908 532.882 478.815 533.106 478.644C533.329 478.474 533.493 478.236 533.571 477.966C538.956 461.857 536.962 442.177 549.932 429.35C561.164 418.234 577.631 422.066 593.644 414.187C604.403 408.994 612.664 399.747 616.617 388.473C619.69 379.481 619.38 370.079 619.38 360.722C619.369 348.681 619.475 352.95 619.369 335.974ZM602.339 345.153L611.331 340.195C612.785 339.389 614.086 341.619 612.632 342.421L603.64 347.38C602.185 348.186 600.884 345.956 602.339 345.153ZM548.341 367.422C547.28 366.847 546.089 366.552 544.882 366.565C543.675 366.578 542.491 366.899 541.443 367.498C539.979 368.554 538.929 370.088 538.475 371.835C536.084 379.303 539.609 385.478 534.254 392.232C533.174 393.577 531.717 394.567 530.069 395.075C528.421 395.584 526.659 395.587 525.01 395.084C523.505 394.518 522.141 393.632 521.012 392.489C519.882 391.345 519.014 389.97 518.466 388.459C515.984 381.707 519.655 372.364 514.488 367.576C513.417 366.617 512.113 365.957 510.706 365.661C509.299 365.366 507.839 365.446 506.473 365.893C499.438 368.054 501.029 376.558 500.572 382.138C500.114 387.718 497.054 394.538 490.477 394.042C487.698 393.756 485.131 392.427 483.293 390.323C481.456 388.219 480.484 385.497 480.574 382.705C479.806 376.666 479.733 370.558 480.355 364.503C480.526 362.863 483.107 362.853 482.937 364.503C482.226 371.617 482.5 378.796 483.753 385.836C485.662 391.983 493.568 393.616 496.324 387.994C499.448 382.476 497.068 375.888 499.018 370.055C499.804 367.84 501.302 365.947 503.278 364.674C505.255 363.401 507.597 362.819 509.939 363.019C512.282 363.219 514.492 364.191 516.223 365.781C517.954 367.371 519.11 369.49 519.508 371.807C520.066 375.413 520.245 379.068 520.041 382.711C519.938 384.46 520.265 386.208 520.993 387.801C521.721 389.395 522.828 390.786 524.217 391.853C524.9 392.293 525.662 392.594 526.461 392.739C527.26 392.883 528.079 392.868 528.872 392.695C529.666 392.523 530.417 392.195 531.083 391.731C531.749 391.267 532.317 390.676 532.755 389.992C535.767 385.297 534.561 381.195 535.063 375.991C535.024 373.919 535.469 371.866 536.364 369.996C537.259 368.127 538.578 366.492 540.217 365.223C541.474 364.565 542.855 364.176 544.271 364.08C545.686 363.983 547.107 364.182 548.442 364.664C549.777 365.146 550.997 365.899 552.026 366.877C553.054 367.855 553.868 369.037 554.416 370.346C555.745 373.448 556.356 376.81 556.202 380.181C556.082 384.178 555.765 388.167 555.253 392.133C555.038 393.762 552.473 393.779 552.671 392.133C552.913 390.122 553.153 388.107 553.334 386.089C553.877 380.02 554.676 370.875 548.341 367.422ZM534.783 428.315H373.329C372.998 428.298 372.687 428.155 372.459 427.915C372.231 427.675 372.104 427.357 372.104 427.026C372.104 426.695 372.231 426.377 372.459 426.137C372.687 425.897 372.998 425.754 373.329 425.737H534.783C535.114 425.754 535.425 425.897 535.653 426.137C535.881 426.377 536.008 426.695 536.008 427.026C536.008 427.357 535.881 427.675 535.653 427.915C535.425 428.155 535.114 428.298 534.783 428.315ZM449.408 444.28H500.463C500.793 444.297 501.104 444.441 501.332 444.681C501.56 444.92 501.687 445.239 501.687 445.57C501.687 445.9 501.56 446.219 501.332 446.459C501.104 446.699 500.793 446.842 500.463 446.859H449.408C449.078 446.842 448.767 446.699 448.539 446.459C448.311 446.219 448.184 445.9 448.184 445.57C448.184 445.239 448.311 444.92 448.539 444.681C448.767 444.441 449.078 444.297 449.408 444.28ZM505.933 439.841H452.14C451.798 439.841 451.47 439.705 451.228 439.463C450.985 439.221 450.849 438.892 450.849 438.55C450.849 438.208 450.985 437.879 451.228 437.637C451.47 437.395 451.798 437.259 452.14 437.259H505.926C506.269 437.259 506.597 437.395 506.839 437.637C507.081 437.879 507.217 438.208 507.217 438.55C507.217 438.892 507.081 439.221 506.839 439.463C506.597 439.705 506.269 439.841 505.926 439.841H505.933ZM374.429 444.28H404.528C404.859 444.297 405.17 444.441 405.398 444.681C405.626 444.92 405.753 445.239 405.753 445.57C405.753 445.9 405.626 446.219 405.398 446.459C405.17 446.699 404.859 446.842 404.528 446.859H374.429C374.125 446.667 373.906 446.368 373.813 446.021C373.72 445.674 373.76 445.305 373.927 444.987C374.076 444.736 374.241 444.494 374.422 444.263L374.429 444.28ZM407.752 439.841H376.044C375.701 439.841 375.373 439.705 375.131 439.463C374.889 439.221 374.753 438.892 374.753 438.55C374.753 438.208 374.889 437.879 375.131 437.637C375.373 437.395 375.701 437.259 376.044 437.259H407.745C408.088 437.259 408.416 437.395 408.658 437.637C408.9 437.879 409.036 438.208 409.036 438.55C409.036 438.892 408.9 439.221 408.658 439.463C408.416 439.705 408.088 439.841 407.745 439.841H407.752ZM398.801 419.904L413.486 416.513C415.105 416.137 415.791 418.627 414.169 418.999L399.484 422.39C397.862 422.752 397.179 420.263 398.795 419.891L398.801 419.904ZM436.025 340.768C439.433 342.062 442.752 343.58 445.959 345.314C447.421 346.106 446.116 348.333 444.658 347.54C441.649 345.909 438.535 344.478 435.338 343.254C433.809 342.657 434.478 340.164 436.032 340.755L436.025 340.768ZM531.027 420.55C529.476 419.983 530.149 417.476 531.71 418.06L542.805 422.097C544.356 422.66 543.683 425.153 542.122 424.583L531.027 420.55Z" fill="#CCEAFF"/>
<path d="M530.159 482.791H340.25C339.97 482.797 339.698 482.891 339.474 483.061C339.251 483.231 339.087 483.468 339.007 483.737C335.954 493.747 328.885 499.491 318.859 502.67C303.235 507.629 289.285 507.253 276.301 517.744C275.4 518.471 276.171 519.947 277.213 519.947C429.754 519.947 460.506 520.056 466.564 519.882C468.173 519.834 467.227 520.111 469.402 518.516C485.217 506.867 507.855 510.081 521.679 498.944C526.335 495.22 529.731 490.152 531.405 484.431C531.457 484.239 531.465 484.037 531.427 483.842C531.389 483.646 531.307 483.462 531.186 483.304C531.066 483.145 530.91 483.016 530.732 482.928C530.554 482.839 530.358 482.792 530.159 482.791Z" fill="#CCEAFF"/>
<path d="M460.781 525.89C256.629 525.89 270.494 525.576 269.759 526.528C266.56 530.681 264.228 535.434 262.902 540.506C262.852 540.697 262.846 540.898 262.884 541.092C262.923 541.286 263.005 541.469 263.125 541.627C263.245 541.784 263.399 541.912 263.576 542.002C263.753 542.091 263.947 542.139 264.145 542.142H454.053C454.335 542.139 454.609 542.045 454.833 541.874C455.057 541.703 455.22 541.464 455.296 541.192C456.608 536.352 458.849 531.814 461.894 527.829C462.516 527.027 461.665 525.89 460.781 525.89Z" fill="#CCEAFF"/>
<path d="M469.876 141.179V116.526H429.46V141.135C432.841 141.009 417.702 141.179 469.876 141.179ZM441.873 122.585C441.878 122.244 442.015 121.918 442.256 121.677C442.498 121.436 442.823 121.298 443.164 121.294H455.704C456.045 121.299 456.37 121.437 456.611 121.678C456.852 121.919 456.99 122.244 456.995 122.585V135.125C456.988 135.465 456.85 135.789 456.609 136.03C456.369 136.27 456.044 136.408 455.704 136.415H443.164C442.824 136.41 442.498 136.272 442.257 136.032C442.016 135.791 441.879 135.465 441.873 135.125V122.585Z" fill="white"/>
<path d="M616.785 141.179V116.526C615.76 116.564 621.074 116.526 572.782 116.526V141.176L616.785 141.179ZM581.887 123.626H607.325C607.655 123.643 607.967 123.787 608.195 124.026C608.422 124.266 608.549 124.585 608.549 124.915C608.549 125.246 608.422 125.565 608.195 125.804C607.967 126.044 607.655 126.188 607.325 126.205H581.887C581.556 126.188 581.245 126.044 581.017 125.804C580.789 125.565 580.662 125.246 580.662 124.915C580.662 124.585 580.789 124.266 581.017 124.026C581.245 123.787 581.556 123.643 581.887 123.626ZM581.75 131.139H607.192C607.522 131.156 607.834 131.3 608.061 131.539C608.289 131.779 608.416 132.098 608.416 132.428C608.416 132.759 608.289 133.078 608.061 133.317C607.834 133.557 607.522 133.701 607.192 133.718H581.75C581.42 133.701 581.108 133.557 580.88 133.317C580.653 133.078 580.526 132.759 580.526 132.428C580.526 132.098 580.653 131.779 580.88 131.539C581.108 131.3 581.42 131.156 581.75 131.139Z" fill="white"/>
<path d="M570.209 141.179V116.526H472.461V141.176L570.209 141.179Z" fill="white"/>
<path d="M453.251 546.266H263.343C263 546.266 262.672 546.402 262.43 546.644C262.188 546.886 262.052 547.214 262.052 547.557C262.052 547.899 262.188 548.227 262.43 548.469C262.672 548.711 263 548.847 263.343 548.847H453.251C453.593 548.847 453.921 548.711 454.164 548.469C454.406 548.227 454.542 547.899 454.542 547.557C454.542 547.214 454.406 546.886 454.164 546.644C453.921 546.402 453.593 546.266 453.251 546.266Z" fill="#CCEAFF"/>
<path d="M453.249 553.95H263.341C263.011 553.967 262.699 554.11 262.472 554.35C262.244 554.59 262.117 554.908 262.117 555.239C262.117 555.57 262.244 555.888 262.472 556.128C262.699 556.368 263.011 556.512 263.341 556.529H453.249C453.58 556.512 453.891 556.368 454.119 556.128C454.347 555.888 454.474 555.57 454.474 555.239C454.474 554.908 454.347 554.59 454.119 554.35C453.891 554.11 453.58 553.967 453.249 553.95Z" fill="#CCEAFF"/>
<path d="M619.372 115.239C619.366 114.898 619.229 114.573 618.988 114.332C618.747 114.091 618.421 113.953 618.081 113.948H428.173C427.832 113.953 427.507 114.091 427.266 114.332C427.025 114.573 426.887 114.898 426.882 115.239C426.697 141.336 426.882 217.689 426.882 217.716C426.887 218.057 427.025 218.382 427.266 218.623C427.507 218.864 427.832 219.002 428.173 219.007H618.081C618.42 218.998 618.744 218.859 618.984 218.619C619.224 218.379 619.363 218.056 619.372 217.716C619.112 181.831 619.618 150.396 619.372 115.239ZM572.788 116.529H616.79V141.179H572.788V116.529ZM472.462 116.529H570.209V141.179H472.462V116.529ZM429.464 116.529H469.88V141.179C469.88 141.179 431.598 141.056 429.464 141.138V116.529ZM538.149 194.275H508.097C507.872 194.272 507.651 194.21 507.457 194.095C507.263 193.981 507.101 193.818 506.989 193.622C506.877 193.426 506.817 193.205 506.816 192.98C506.816 192.754 506.873 192.532 506.984 192.336L522.01 166.549C522.127 166.358 522.29 166.201 522.485 166.091C522.68 165.982 522.9 165.924 523.123 165.924C523.347 165.924 523.567 165.982 523.762 166.091C523.957 166.201 524.12 166.358 524.237 166.549C524.858 167.614 534.741 184.884 539.263 192.336C539.371 192.532 539.427 192.754 539.425 192.979C539.424 193.203 539.364 193.424 539.252 193.619C539.14 193.814 538.98 193.977 538.787 194.092C538.594 194.207 538.374 194.27 538.149 194.275Z" fill="#2755A0"/>
<path d="M581.888 126.204H607.326C607.656 126.187 607.968 126.044 608.196 125.804C608.423 125.564 608.55 125.246 608.55 124.915C608.55 124.584 608.423 124.266 608.196 124.026C607.968 123.786 607.656 123.643 607.326 123.626H581.888C581.557 123.643 581.246 123.786 581.018 124.026C580.79 124.266 580.663 124.584 580.663 124.915C580.663 125.246 580.79 125.564 581.018 125.804C581.246 126.044 581.557 126.187 581.888 126.204Z" fill="black"/>
<path d="M581.753 133.721H607.195C607.525 133.704 607.837 133.561 608.065 133.321C608.293 133.081 608.42 132.763 608.42 132.432C608.42 132.101 608.293 131.783 608.065 131.543C607.837 131.303 607.525 131.16 607.195 131.143H581.753C581.423 131.16 581.112 131.303 580.884 131.543C580.656 131.783 580.529 132.101 580.529 132.432C580.529 132.763 580.656 133.081 580.884 133.321C581.112 133.561 581.423 133.704 581.753 133.721Z" fill="black"/>
<path d="M455.718 121.307H443.179C442.838 121.311 442.512 121.449 442.271 121.69C442.03 121.931 441.892 122.257 441.888 122.598V135.138C441.892 135.479 442.03 135.804 442.271 136.046C442.512 136.287 442.838 136.424 443.179 136.429C456.917 136.524 456.033 136.586 456.627 136.043C457.146 135.36 457.112 136.907 457.009 122.598C457.005 122.257 456.867 121.931 456.626 121.69C456.385 121.449 456.059 121.311 455.718 121.307Z" fill="#FFD2D2"/>
<path d="M540.224 365.219C538.586 366.488 537.267 368.123 536.372 369.992C535.477 371.862 535.032 373.915 535.071 375.987C534.624 380.648 535.679 385.822 532.814 389.906C532.388 390.596 531.83 391.194 531.173 391.668C530.515 392.141 529.771 392.481 528.982 392.667C528.193 392.853 527.376 392.881 526.576 392.751C525.776 392.621 525.01 392.334 524.321 391.907C523.638 391.487 520.318 389.548 520.059 382.711C520.263 379.067 520.084 375.413 519.526 371.807C519.244 370.2 518.607 368.677 517.662 367.348C516.717 366.018 515.487 364.917 514.062 364.123C512.706 363.4 511.21 362.981 509.676 362.894C508.142 362.807 506.608 363.054 505.179 363.618C503.75 364.182 502.461 365.05 501.4 366.161C500.339 367.272 499.533 368.601 499.036 370.055C497.086 375.888 499.466 382.475 496.342 387.994C493.582 393.625 485.677 391.983 483.771 385.836C482.526 378.795 482.252 371.617 482.955 364.502C483.126 362.853 480.544 362.863 480.373 364.502C479.751 370.558 479.824 376.665 480.592 382.704C480.504 385.495 481.477 388.217 483.314 390.32C485.152 392.423 487.717 393.753 490.495 394.042C497.073 394.537 500.132 387.676 500.59 382.137C501.048 376.598 499.456 368.054 506.491 365.892C507.857 365.445 509.317 365.365 510.724 365.661C512.131 365.956 513.435 366.617 514.506 367.576C519.704 372.391 515.954 381.577 518.485 388.458C519.032 389.97 519.901 391.344 521.03 392.488C522.16 393.632 523.523 394.517 525.028 395.083C532.172 397.228 537.236 390.61 537.472 382.964C537.639 377.629 537.038 370.69 541.461 367.497C542.509 366.898 543.693 366.577 544.9 366.564C546.107 366.551 547.298 366.846 548.359 367.422C554.694 370.874 553.895 380.02 553.359 386.068C553.169 388.086 552.948 390.101 552.696 392.112C552.498 393.758 555.063 393.741 555.278 392.112C555.797 388.151 556.101 384.169 556.227 380.16C556.661 365.626 546.45 361.586 540.224 365.219Z" fill="#78B5FF"/>
<path d="M539.263 192.339C538.883 191.656 524.725 167.369 524.237 166.553C524.121 166.361 523.957 166.203 523.762 166.093C523.567 165.983 523.347 165.925 523.123 165.925C522.899 165.925 522.679 165.983 522.484 166.093C522.289 166.203 522.126 166.361 522.01 166.553C517.57 174.045 506.984 192.339 506.984 192.339C506.873 192.536 506.816 192.758 506.816 192.983C506.817 193.209 506.877 193.43 506.989 193.626C507.101 193.821 507.262 193.984 507.457 194.099C507.651 194.213 507.872 194.275 508.097 194.279H538.149C538.372 194.268 538.588 194.201 538.778 194.085C538.968 193.969 539.125 193.807 539.236 193.613C539.347 193.42 539.407 193.202 539.412 192.98C539.417 192.757 539.365 192.537 539.263 192.339Z" fill="white"/>
<path d="M531.584 135.39L523.48 121.481C523.026 120.733 521.906 120.456 521.114 121.679C520.431 122.737 518.631 125.825 513.15 135.39C513.039 135.586 512.982 135.808 512.982 136.034C512.983 136.259 513.043 136.481 513.155 136.676C513.267 136.872 513.429 137.035 513.623 137.15C513.817 137.264 514.038 137.326 514.263 137.33H530.471C530.693 137.318 530.909 137.251 531.098 137.134C531.287 137.018 531.445 136.856 531.555 136.663C531.666 136.47 531.727 136.252 531.732 136.03C531.737 135.808 531.686 135.588 531.584 135.39Z" fill="#FF4848"/>
<path d="M474.034 266.667H524.559C524.889 266.65 525.201 266.507 525.429 266.267C525.656 266.027 525.783 265.709 525.783 265.378C525.783 265.047 525.656 264.729 525.429 264.489C525.201 264.249 524.889 264.106 524.559 264.089H474.034C473.704 264.106 473.392 264.249 473.164 264.489C472.937 264.729 472.81 265.047 472.81 265.378C472.81 265.709 472.937 266.027 473.164 266.267C473.392 266.507 473.704 266.65 474.034 266.667Z" fill="#2755A0"/>
<path d="M474.034 276.348H524.197C524.527 276.331 524.838 276.188 525.066 275.948C525.294 275.708 525.421 275.39 525.421 275.059C525.421 274.728 525.294 274.41 525.066 274.17C524.838 273.93 524.527 273.787 524.197 273.77H474.03C473.7 273.787 473.388 273.93 473.161 274.17C472.933 274.41 472.806 274.728 472.806 275.059C472.806 275.39 472.933 275.708 473.161 275.948C473.388 276.188 473.7 276.331 474.03 276.348H474.034Z" fill="#2755A0"/>
<path d="M473.316 284.943H524.541C524.883 284.943 525.211 284.807 525.454 284.565C525.696 284.323 525.832 283.994 525.832 283.652C525.832 283.31 525.696 282.981 525.454 282.739C525.211 282.497 524.883 282.361 524.541 282.361H473.316C472.973 282.361 472.645 282.497 472.403 282.739C472.161 282.981 472.025 283.31 472.025 283.652C472.025 283.994 472.161 284.323 472.403 284.565C472.645 284.807 472.973 284.943 473.316 284.943Z" fill="#2755A0"/>
<path d="M555.13 239.429L562.889 232.134C564.101 230.997 562.274 229.174 561.066 230.311L553.307 237.605C552.094 238.742 553.908 240.566 555.13 239.429Z" fill="#2755A0"/>
<path d="M555.683 315.767L562.171 321.648C563.397 322.761 565.245 320.944 563.995 319.824L557.507 313.944C556.294 312.83 554.45 314.651 555.683 315.767Z" fill="#2755A0"/>
<path d="M440.187 238.595C441.409 239.716 443.24 237.912 442.014 236.772C439.727 234.67 437.561 232.441 435.525 230.095C434.432 228.842 432.616 230.673 433.702 231.919C435.736 234.265 437.901 236.494 440.187 238.595Z" fill="#2755A0"/>
<path d="M436.106 321.965C437.927 320.517 439.815 319.156 441.765 317.887C443.148 316.982 441.857 314.745 440.46 315.657C438.329 317.053 436.27 318.547 434.282 320.141C432.985 321.176 434.819 322.989 436.106 321.965Z" fill="#2755A0"/>
<path d="M606.346 244.739H586.73C586.388 244.739 586.06 244.875 585.818 245.117C585.575 245.359 585.439 245.688 585.439 246.03C585.439 246.372 585.575 246.701 585.818 246.943C586.06 247.185 586.388 247.321 586.73 247.321H606.346C606.656 247.276 606.94 247.12 607.145 246.883C607.35 246.646 607.462 246.343 607.462 246.03C607.462 245.717 607.35 245.414 607.145 245.177C606.94 244.94 606.656 244.784 606.346 244.739Z" fill="#2755A0"/>
<path d="M606.346 254.581H586.73C586.388 254.581 586.06 254.717 585.818 254.959C585.575 255.201 585.439 255.529 585.439 255.872C585.439 256.214 585.575 256.542 585.818 256.784C586.06 257.027 586.388 257.163 586.73 257.163H606.346C606.688 257.163 607.017 257.027 607.259 256.784C607.501 256.542 607.637 256.214 607.637 255.872C607.637 255.529 607.501 255.201 607.259 254.959C607.017 254.717 606.688 254.581 606.346 254.581Z" fill="#2755A0"/>
<path d="M606.345 264.088H586.729C586.399 264.105 586.088 264.249 585.86 264.489C585.632 264.729 585.505 265.047 585.505 265.378C585.505 265.708 585.632 266.027 585.86 266.267C586.088 266.507 586.399 266.65 586.729 266.667H606.345C606.52 266.676 606.695 266.649 606.859 266.588C607.023 266.528 607.174 266.434 607.301 266.314C607.427 266.193 607.529 266.048 607.598 265.887C607.667 265.726 607.702 265.553 607.702 265.378C607.702 265.203 607.667 265.029 607.598 264.868C607.529 264.707 607.427 264.562 607.301 264.442C607.174 264.321 607.023 264.228 606.859 264.167C606.695 264.106 606.52 264.079 606.345 264.088Z" fill="#2755A0"/>
<path d="M606.346 273.761H586.73C586.388 273.761 586.06 273.897 585.818 274.139C585.575 274.381 585.439 274.709 585.439 275.051C585.439 275.394 585.575 275.722 585.818 275.964C586.06 276.206 586.388 276.342 586.73 276.342H606.346C606.688 276.342 607.017 276.206 607.259 275.964C607.501 275.722 607.637 275.394 607.637 275.051C607.637 274.709 607.501 274.381 607.259 274.139C607.017 273.897 606.688 273.761 606.346 273.761Z" fill="#2755A0"/>
<path d="M606.345 290.056H586.729C586.399 290.073 586.088 290.217 585.86 290.457C585.632 290.696 585.505 291.015 585.505 291.346C585.505 291.676 585.632 291.995 585.86 292.235C586.088 292.474 586.399 292.618 586.729 292.635H606.345C606.657 292.592 606.943 292.438 607.149 292.201C607.356 291.964 607.47 291.66 607.47 291.346C607.47 291.031 607.356 290.727 607.149 290.49C606.943 290.253 606.657 290.099 606.345 290.056Z" fill="#2755A0"/>
<path d="M606.345 299.731H586.729C586.399 299.748 586.088 299.891 585.86 300.131C585.632 300.371 585.505 300.689 585.505 301.02C585.505 301.351 585.632 301.669 585.86 301.909C586.088 302.149 586.399 302.292 586.729 302.309H606.345C606.643 302.249 606.911 302.088 607.104 301.853C607.296 301.618 607.402 301.324 607.402 301.02C607.402 300.716 607.296 300.422 607.104 300.186C606.911 299.951 606.643 299.79 606.345 299.731Z" fill="#2755A0"/>
<path d="M363.352 269.057C363.352 131.979 363.751 136.555 362.669 131.211C361.38 126.294 358.507 121.938 354.495 118.818C350.482 115.697 345.554 113.986 340.471 113.948H194.599C191.441 113.838 188.294 114.381 185.356 115.545C182.417 116.708 179.751 118.466 177.524 120.708C175.297 122.95 173.557 125.628 172.413 128.575C171.27 131.521 170.747 134.671 170.879 137.829V273.012C170.818 276.239 171.417 279.444 172.64 282.431C173.863 285.417 175.684 288.123 177.991 290.38C180.297 292.638 183.041 294.4 186.053 295.559C189.065 296.717 192.283 297.248 195.508 297.118C350.31 295.025 340.519 297.354 344.323 296.691C349.465 295.717 354.131 293.047 357.576 289.108C361.021 285.168 363.045 280.187 363.324 274.962C363.447 273.001 363.352 271.017 363.352 269.057Z" fill="#FFF0B3"/>
<path d="M339.519 302.961H199.384C193.106 302.443 186.791 303.323 180.894 305.54C174.997 307.756 169.665 311.252 165.282 315.778C160.947 320.89 157.211 326.482 154.146 332.443C154.05 332.815 154.269 331.893 155.297 331.804H156.017H202.031C205.613 327.796 209.451 324.025 213.522 320.514C226.38 309.323 238.991 309.627 246.648 315.716C248.579 317.641 250.337 319.732 251.9 321.966C252.453 322.28 252.18 322.044 255.998 323.673C259.231 324.782 262.278 326.371 265.038 328.386C266.236 329.432 267.34 330.581 268.337 331.821H345.154C345.371 331.827 345.583 331.886 345.772 331.994C345.961 332.102 346.12 332.255 346.235 332.44C346.35 332.624 346.417 332.834 346.431 333.051C346.445 333.268 346.405 333.485 346.315 333.682C348.091 330.65 349.842 327.604 351.649 324.588C352.985 322.437 353.719 319.966 353.776 317.435C353.832 314.903 353.208 312.402 351.969 310.193C350.731 307.984 348.922 306.148 346.732 304.876C344.542 303.604 342.051 302.943 339.519 302.961Z" fill="#FFF0B3"/>
<path d="M345.162 331.804H268.345C268.993 332.61 269.564 333.475 270.053 334.386C273.523 339.905 268.721 346.922 260.863 345.635C262.154 347.169 263.268 348.842 264.186 350.624C266.051 353.696 266.85 357.297 266.457 360.869C266.253 362.396 265.566 363.818 264.497 364.928C263.429 366.037 262.033 366.776 260.515 367.037C257.003 366.892 253.658 365.496 251.086 363.099C248.866 361.464 246.842 359.578 245.055 357.478C237.965 371.169 228.88 383.73 218.097 394.749C218.097 394.749 282.012 394.749 282.825 394.749C290.434 394.75 297.935 392.951 304.715 389.499C311.496 386.046 317.363 381.038 321.838 374.884C325.157 370.237 343.257 338.685 346.289 333.737C346.397 333.54 346.452 333.318 346.448 333.093C346.445 332.868 346.384 332.647 346.27 332.453C346.157 332.259 345.996 332.097 345.802 331.983C345.607 331.87 345.387 331.808 345.162 331.804Z" fill="#FFC431"/>
<path d="M155.291 331.803C155.053 331.823 154.823 331.899 154.619 332.024C154.416 332.149 154.244 332.32 154.119 332.524C153.874 332.866 154.444 331.923 148.27 342.455C149.294 343.37 155.503 349.141 155.759 349.527C156.616 350.074 162.671 356.617 166.984 360.387C168.998 362.171 171.584 363.175 174.275 363.215C184.41 361.883 184.127 351.699 202.028 331.797C140.234 331.78 158.713 331.517 155.291 331.803Z" fill="#FFC431"/>
<path d="M407.746 437.246H376.037C375.695 437.246 375.367 437.382 375.125 437.624C374.883 437.866 374.747 438.194 374.747 438.537C374.747 438.879 374.883 439.207 375.125 439.45C375.367 439.692 375.695 439.828 376.037 439.828H407.746C408.088 439.828 408.416 439.692 408.659 439.45C408.901 439.207 409.037 438.879 409.037 438.537C409.037 438.194 408.901 437.866 408.659 437.624C408.416 437.382 408.088 437.246 407.746 437.246Z" fill="#78B5FF"/>
<path d="M404.521 444.264H374.421C374.091 444.281 373.78 444.424 373.552 444.664C373.324 444.904 373.197 445.222 373.197 445.553C373.197 445.884 373.324 446.202 373.552 446.442C373.78 446.682 374.091 446.825 374.421 446.842H404.521C404.852 446.825 405.163 446.682 405.391 446.442C405.619 446.202 405.746 445.884 405.746 445.553C405.746 445.222 405.619 444.904 405.391 444.664C405.163 444.424 404.852 444.281 404.521 444.264Z" fill="#78B5FF"/>
<path d="M534.785 425.72H373.33C373 425.737 372.689 425.881 372.461 426.121C372.233 426.361 372.106 426.679 372.106 427.01C372.106 427.34 372.233 427.659 372.461 427.899C372.689 428.139 373 428.282 373.33 428.299H534.785C535.115 428.282 535.427 428.139 535.654 427.899C535.882 427.659 536.009 427.34 536.009 427.01C536.009 426.679 535.882 426.361 535.654 426.121C535.427 425.881 535.115 425.737 534.785 425.72Z" fill="#78B5FF"/>
<path d="M505.925 437.245H452.138C451.796 437.245 451.468 437.381 451.226 437.623C450.984 437.865 450.848 438.194 450.848 438.536C450.848 438.878 450.984 439.207 451.226 439.449C451.468 439.691 451.796 439.827 452.138 439.827H505.925C506.098 439.832 506.27 439.802 506.431 439.74C506.593 439.677 506.74 439.583 506.864 439.463C506.989 439.342 507.088 439.198 507.156 439.039C507.224 438.88 507.259 438.709 507.26 438.536C507.263 438.362 507.23 438.189 507.164 438.028C507.097 437.867 506.998 437.722 506.873 437.6C506.748 437.479 506.599 437.385 506.436 437.324C506.273 437.263 506.099 437.236 505.925 437.245Z" fill="#78B5FF"/>
<path d="M500.456 444.264H449.408C449.078 444.281 448.766 444.424 448.539 444.664C448.311 444.904 448.184 445.222 448.184 445.553C448.184 445.884 448.311 446.202 448.539 446.442C448.766 446.682 449.078 446.825 449.408 446.842H500.462C500.637 446.851 500.812 446.825 500.976 446.764C501.141 446.703 501.291 446.61 501.418 446.489C501.545 446.369 501.646 446.223 501.715 446.063C501.784 445.902 501.82 445.728 501.82 445.553C501.82 445.378 501.784 445.205 501.715 445.044C501.646 444.883 501.545 444.738 501.418 444.617C501.291 444.497 501.141 444.403 500.976 444.343C500.812 444.282 500.637 444.255 500.462 444.264H500.456Z" fill="#78B5FF"/>
<path d="M399.48 422.377L414.165 418.986C415.783 418.613 415.097 416.124 413.482 416.499L398.797 419.89C397.178 420.263 397.861 422.752 399.48 422.377Z" fill="#78B5FF"/>
<path d="M542.823 422.097L531.728 418.06C530.164 417.494 529.491 419.983 531.045 420.55L542.14 424.583C543.701 425.153 544.374 422.66 542.823 422.097Z" fill="#78B5FF"/>
<path d="M435.344 343.241C438.541 344.464 441.654 345.896 444.664 347.527C446.122 348.319 447.426 346.093 445.965 345.3C442.758 343.567 439.439 342.048 436.03 340.755C434.477 340.164 433.807 342.657 435.344 343.241Z" fill="#78B5FF"/>
<path d="M611.33 340.208L602.338 345.166C600.883 345.969 602.184 348.199 603.639 347.393L612.631 342.434C614.086 341.618 612.785 339.388 611.33 340.208Z" fill="#78B5FF"/>
<path d="M487.997 135.5C488.243 135.723 488.565 135.844 488.897 135.836C489.229 135.828 489.545 135.693 489.78 135.458C490.014 135.223 490.15 134.907 490.157 134.575C490.165 134.243 490.045 133.921 489.821 133.676C486.062 129.79 482.24 125.967 478.353 122.208C478.108 121.985 477.786 121.864 477.454 121.872C477.122 121.88 476.806 122.015 476.571 122.25C476.336 122.484 476.201 122.801 476.193 123.133C476.186 123.464 476.306 123.787 476.53 124.032C480.284 127.918 484.106 131.741 487.997 135.5Z" fill="black"/>
<path d="M498.739 135.5C498.983 135.736 499.309 135.866 499.647 135.864C499.986 135.861 500.31 135.726 500.55 135.487C500.789 135.247 500.926 134.923 500.929 134.585C500.932 134.246 500.802 133.92 500.566 133.676C496.398 129.366 492.158 125.126 487.846 120.955C487.6 120.732 487.278 120.611 486.946 120.619C486.614 120.626 486.298 120.762 486.063 120.997C485.828 121.231 485.693 121.548 485.685 121.879C485.678 122.211 485.798 122.534 486.022 122.779C490.188 127.089 494.427 131.329 498.739 135.5Z" fill="black"/>
<path d="M544.686 135.499C544.929 135.735 545.255 135.866 545.594 135.863C545.933 135.861 546.257 135.725 546.497 135.486C546.736 135.247 546.872 134.923 546.876 134.584C546.879 134.246 546.749 133.919 546.513 133.676C542.342 129.366 538.102 125.126 533.792 120.955C533.549 120.719 533.223 120.588 532.884 120.591C532.546 120.593 532.222 120.729 531.982 120.968C531.742 121.207 531.606 121.531 531.603 121.87C531.6 122.208 531.73 122.535 531.965 122.778C536.12 127.088 540.361 131.328 544.686 135.499Z" fill="black"/>
<path d="M268.619 189.368C265.501 183.686 257.92 170.989 257.452 170.203C257.336 170.012 257.173 169.853 256.978 169.743C256.783 169.634 256.563 169.576 256.339 169.576C256.115 169.576 255.895 169.634 255.7 169.743C255.505 169.853 255.342 170.012 255.226 170.203C251.475 176.574 247.753 182.963 244.062 189.368C243.949 189.566 243.89 189.79 243.891 190.018C243.891 190.245 243.952 190.469 244.066 190.666C244.18 190.863 244.344 191.026 244.541 191.14C244.738 191.254 244.961 191.314 245.189 191.315H267.516C267.738 191.301 267.953 191.232 268.141 191.115C268.33 190.997 268.486 190.834 268.595 190.641C268.705 190.447 268.764 190.23 268.768 190.008C268.773 189.785 268.721 189.566 268.619 189.368Z" fill="#2755A0"/>
<path d="M297.547 189.368C294.429 183.686 286.848 170.985 286.383 170.203C286.267 170.012 286.103 169.853 285.908 169.743C285.713 169.633 285.493 169.576 285.268 169.576C285.044 169.576 284.824 169.633 284.629 169.743C284.433 169.853 284.27 170.012 284.153 170.203C280.405 176.576 276.684 182.964 272.99 189.368C272.879 189.565 272.821 189.786 272.822 190.012C272.823 190.237 272.883 190.459 272.995 190.655C273.107 190.85 273.268 191.013 273.463 191.128C273.657 191.242 273.878 191.304 274.103 191.308H296.42C296.643 191.298 296.861 191.233 297.052 191.117C297.243 191.001 297.402 190.839 297.514 190.646C297.627 190.453 297.688 190.235 297.694 190.011C297.7 189.788 297.649 189.567 297.547 189.368Z" fill="#2755A0"/>
<path d="M266.748 205.729H249.469C249.128 205.735 248.803 205.872 248.563 206.113C248.322 206.354 248.186 206.68 248.181 207.02V224.297C248.186 224.637 248.322 224.962 248.563 225.203C248.803 225.444 249.128 225.582 249.469 225.587C267.91 225.717 267.227 225.775 267.718 225.123C268.19 224.624 268.169 225.465 268.039 207.024C268.036 206.682 267.899 206.355 267.658 206.113C267.416 205.872 267.09 205.734 266.748 205.729Z" fill="#FF4848"/>
<path d="M306.135 224.909C303.017 219.226 295.436 206.529 294.968 205.747C294.852 205.555 294.689 205.397 294.494 205.287C294.299 205.177 294.079 205.119 293.855 205.119C293.631 205.119 293.411 205.177 293.216 205.287C293.021 205.397 292.857 205.555 292.741 205.747C289.429 211.317 282.029 224.12 281.578 224.909C281.467 225.105 281.41 225.327 281.411 225.553C281.412 225.779 281.471 226 281.583 226.196C281.695 226.392 281.856 226.555 282.051 226.67C282.245 226.785 282.465 226.847 282.691 226.852H305.022C305.244 226.838 305.459 226.77 305.647 226.653C305.836 226.536 305.993 226.374 306.103 226.181C306.214 225.988 306.275 225.771 306.28 225.549C306.286 225.327 306.236 225.107 306.135 224.909Z" fill="#2755A0"/>
<path d="M239.902 205.121L222.376 222.643C222.157 222.89 222.041 223.211 222.051 223.54C222.061 223.87 222.197 224.183 222.43 224.416C222.663 224.649 222.976 224.785 223.306 224.795C223.635 224.805 223.956 224.689 224.203 224.47C230.143 218.726 235.984 212.884 241.725 206.944C241.949 206.699 242.07 206.377 242.062 206.045C242.054 205.713 241.919 205.397 241.684 205.162C241.449 204.927 241.133 204.792 240.801 204.784C240.469 204.777 240.147 204.897 239.902 205.121Z" fill="black"/>
<path d="M239.901 138.017L222.375 155.542C222.14 155.786 222.01 156.112 222.013 156.451C222.016 156.79 222.152 157.113 222.392 157.353C222.631 157.592 222.955 157.727 223.294 157.73C223.633 157.732 223.959 157.602 224.202 157.366C230.142 151.626 235.983 145.785 241.724 139.84C241.948 139.595 242.069 139.273 242.061 138.941C242.053 138.609 241.918 138.293 241.683 138.058C241.448 137.823 241.132 137.688 240.8 137.68C240.468 137.672 240.146 137.793 239.901 138.017Z" fill="black"/>
<path d="M239.902 171.702C233.962 177.444 228.12 183.285 222.376 189.225C222.157 189.472 222.041 189.792 222.051 190.122C222.061 190.452 222.197 190.765 222.43 190.998C222.663 191.231 222.976 191.366 223.306 191.376C223.635 191.386 223.956 191.27 224.203 191.052C230.143 185.308 235.984 179.466 241.725 173.526C241.949 173.281 242.07 172.958 242.062 172.627C242.054 172.295 241.919 171.978 241.684 171.744C241.449 171.509 241.133 171.374 240.801 171.366C240.469 171.358 240.147 171.479 239.902 171.702Z" fill="black"/>
<path d="M189.211 139.194V157.707C189.228 158.037 189.372 158.349 189.612 158.577C189.851 158.804 190.17 158.931 190.501 158.931C190.831 158.931 191.15 158.804 191.39 158.577C191.629 158.349 191.773 158.037 191.79 157.707V139.194C191.773 138.864 191.629 138.553 191.39 138.325C191.15 138.097 190.831 137.97 190.501 137.97C190.17 137.97 189.851 138.097 189.612 138.325C189.372 138.553 189.228 138.864 189.211 139.194Z" fill="#FF4848"/>
<path d="M189.211 173.257V191.769C189.228 192.1 189.372 192.411 189.612 192.639C189.851 192.867 190.17 192.994 190.501 192.994C190.831 192.994 191.15 192.867 191.39 192.639C191.629 192.411 191.773 192.1 191.79 191.769V173.257C191.773 172.926 191.629 172.615 191.39 172.387C191.15 172.159 190.831 172.032 190.501 172.032C190.17 172.032 189.851 172.159 189.612 172.387C189.372 172.615 189.228 172.926 189.211 173.257Z" fill="#FF4848"/>
<path d="M189.211 206.949V225.465C189.228 225.795 189.372 226.106 189.612 226.334C189.851 226.562 190.17 226.689 190.501 226.689C190.831 226.689 191.15 226.562 191.39 226.334C191.629 226.106 191.773 225.795 191.79 225.465V206.949C191.773 206.618 191.629 206.307 191.39 206.079C191.15 205.851 190.831 205.724 190.501 205.724C190.17 205.724 189.851 205.851 189.612 206.079C189.372 206.307 189.228 206.618 189.211 206.949Z" fill="#FF4848"/>
<path d="M189.211 240.518V259.03C189.228 259.361 189.372 259.672 189.612 259.9C189.851 260.128 190.17 260.255 190.501 260.255C190.831 260.255 191.15 260.128 191.39 259.9C191.629 259.672 191.773 259.361 191.79 259.03V240.518C191.773 240.187 191.629 239.876 191.39 239.648C191.15 239.42 190.831 239.293 190.501 239.293C190.17 239.293 189.851 239.42 189.612 239.648C189.372 239.876 189.228 240.187 189.211 240.518Z" fill="#FF4848"/>
<path d="M249.798 419.413C246.185 419.816 168.18 428.025 158.959 428.947C174.481 452.511 190.774 477.147 203.44 496.609H249.798C250.139 496.605 250.464 496.468 250.705 496.228C250.946 495.987 251.082 495.662 251.086 495.321C251.537 440.562 251.386 425.792 251.192 421.742C251.134 420.55 250.997 419.187 249.798 419.413Z" fill="#2755A0"/>
<path d="M113.033 462.445C112.391 464.757 111.606 467.038 110.984 469.333C109.956 473.573 108.347 477.652 106.203 481.453C103.313 486.096 99.2846 489.923 94.4994 492.571C89.7143 495.218 84.3316 496.599 78.8628 496.581C79.4365 496.639 73.7403 496.608 124.009 496.608C121.229 486.561 117.346 474.418 113.033 462.445Z" fill="#2755A0"/>
<path d="M284.436 418.162C271.401 433.061 262.873 451.361 259.848 470.924C258.55 479.691 258.643 489.15 264.288 496.468C264.448 496.626 264.646 496.738 264.863 496.796C265.08 496.853 265.309 496.854 265.526 496.796C265.743 496.739 265.942 496.627 266.102 496.47C266.263 496.313 266.38 496.117 266.442 495.901C267.125 493.361 286.591 419.464 286.591 419.406C286.905 418.234 285.314 417.155 284.436 418.162Z" fill="black"/>
<path d="M224.045 523.819C212.741 514.425 197.636 511.935 183.338 512.109C166.828 512.324 150.501 515.6 135.186 521.77C134.895 521.863 134.646 522.055 134.482 522.313C134.318 522.571 134.251 522.878 134.292 523.181C134.333 523.484 134.479 523.762 134.705 523.968C134.931 524.173 135.223 524.293 135.528 524.304C138.434 524.383 223.078 526.012 223.129 526.012C223.38 526.004 223.623 525.924 223.829 525.782C224.036 525.64 224.197 525.442 224.293 525.21C224.39 524.979 224.418 524.725 224.374 524.478C224.33 524.232 224.215 524.003 224.045 523.819Z" fill="black"/>
<path d="M155.719 349.463C146.499 340.478 127.959 322.781 115.057 323.167C111.053 323.086 107.095 324.026 103.555 325.899C88.7376 333.699 69.5419 352.717 57.6065 379.515C52.5387 390.831 48.6999 402.659 46.156 414.795C43.8462 427.908 42.8747 441.222 43.2567 454.532C43.1593 455.739 43.1593 456.952 43.2567 458.159C43.3859 450.367 44.3928 442.615 46.2584 435.049C50.978 415.43 56.7015 404.41 65.9664 392.703C75.2313 380.997 89.2874 372.531 104.146 374.713C114.022 376.161 120.856 382.339 127.778 389.295C135.834 376.684 143.302 361.791 153.998 349.572C154.231 349.344 154.542 349.214 154.867 349.205C155.193 349.197 155.509 349.312 155.754 349.527L155.719 349.463Z" fill="#FF4848"/>
<path d="M263.921 345.703C265.22 345.657 266.484 345.272 267.589 344.587C268.694 343.901 269.6 342.939 270.218 341.795C270.837 340.652 271.146 339.367 271.114 338.067C271.083 336.767 270.713 335.498 270.04 334.386C268.745 332.101 267.055 330.064 265.048 328.369C261.034 325.642 256.647 323.509 252.023 322.037C249.632 319.353 247.679 314.808 240.924 312.626C236.489 311.174 231.71 311.155 227.264 312.571C222.207 314.269 217.544 316.97 213.556 320.514C205.084 327.918 197.548 336.328 191.116 345.56C184.426 355.122 182.111 362.191 174.311 363.215C171.621 363.173 169.035 362.17 167.02 360.388C163.387 357.215 156.335 349.873 155.795 349.528C155.551 349.313 155.234 349.198 154.909 349.206C154.583 349.214 154.273 349.345 154.04 349.572C143.32 361.819 135.961 376.551 127.819 389.296C132.822 394.454 137.524 399.896 141.899 405.596C163.308 415.444 189.412 415.158 209.291 401.839C224.416 391.703 236.287 373.457 245.077 357.495C246.863 359.596 248.887 361.482 251.108 363.116C253.68 365.512 257.024 366.909 260.536 367.054C262.055 366.794 263.451 366.055 264.52 364.946C265.589 363.836 266.275 362.414 266.479 360.886C266.871 357.314 266.073 353.713 264.208 350.641C260.523 343.552 259.116 346.239 263.921 345.703Z" fill="#FC9070"/>
<path d="M232.442 321.05C236.664 320.389 240.988 321.06 244.811 322.97C246.358 323.578 247.031 321.085 245.494 320.484C241.235 318.4 236.423 317.728 231.755 318.564C230.123 318.841 230.816 321.324 232.442 321.05Z" fill="#FF4848"/>
<path d="M242.303 338.806C245.505 339.546 248.578 340.76 251.421 342.408C251.715 342.569 252.061 342.609 252.385 342.52C252.708 342.43 252.984 342.218 253.154 341.928C253.323 341.639 253.374 341.294 253.294 340.968C253.214 340.642 253.01 340.36 252.725 340.182C249.715 338.365 246.426 337.059 242.989 336.316C241.37 335.957 240.677 338.447 242.303 338.806Z" fill="#FF4848"/>
<path d="M208.028 503.599C206.471 501.29 159.535 429.759 158.965 428.947C149.774 415.248 139.597 402.237 128.517 390.016C119.931 381.249 111.862 374.255 99.5371 374.341C86.0854 374.436 74.1739 382.342 65.9745 392.686C57.1364 403.592 50.837 416.328 47.5335 429.971C43.234 445.981 40.1059 467.908 48.517 482.139C50.7602 485.849 53.8021 489.013 57.4214 491.401C61.0408 493.789 65.1467 495.34 69.4407 495.942C82.7934 497.957 91.4606 495.239 98.2292 490.137C105.476 484.673 108.57 478.334 110.974 469.305C111.589 467.01 112.374 464.729 113.023 462.417C120.28 482.528 123.551 494.907 126.143 504.565C126.218 504.837 126.38 505.078 126.605 505.249C126.829 505.421 127.104 505.514 127.386 505.514H206.915C207.137 505.509 207.354 505.446 207.545 505.333C207.736 505.22 207.895 505.059 208.007 504.867C208.118 504.675 208.179 504.458 208.183 504.236C208.186 504.014 208.133 503.794 208.028 503.599Z" fill="#2755A0"/>
<path d="M167.154 404.971H179.335C179.665 404.954 179.977 404.811 180.205 404.571C180.432 404.331 180.56 404.013 180.56 403.682C180.56 403.351 180.432 403.033 180.205 402.793C179.977 402.553 179.665 402.41 179.335 402.393H167.154C166.823 402.41 166.512 402.553 166.284 402.793C166.056 403.033 165.929 403.351 165.929 403.682C165.929 404.013 166.056 404.331 166.284 404.571C166.512 404.811 166.823 404.954 167.154 404.971Z" fill="#FF4848"/>
<path d="M130.425 294.314C129.024 292.756 127.24 291.592 125.25 290.937C123.26 290.281 121.133 290.158 119.08 290.578C117.027 290.999 115.12 291.948 113.548 293.333C111.975 294.718 110.793 296.49 110.116 298.474C109.694 299.89 109.569 301.379 109.751 302.846C109.933 304.312 110.416 305.726 111.172 306.996C111.927 308.267 112.938 309.367 114.14 310.227C115.342 311.087 116.709 311.689 118.155 311.994C120.486 312.393 122.882 312.135 125.075 311.249C127.267 310.363 129.17 308.884 130.569 306.977C132.008 305.173 132.779 302.927 132.753 300.62C132.727 298.313 131.905 296.085 130.425 294.314Z" fill="#FC9070"/>
<path d="M142.545 270.907C142.073 264.511 134.39 262.343 128.618 265.355C123.125 268.834 118.741 273.81 115.983 279.698C114.617 282.167 113.077 284.53 111.69 286.985C111.579 287.182 111.522 287.404 111.522 287.629C111.523 287.855 111.583 288.076 111.695 288.272C111.807 288.467 111.969 288.63 112.163 288.745C112.357 288.859 112.578 288.921 112.803 288.925C116.56 288.724 120.316 288.416 124.039 287.945C126.969 287.621 129.836 286.866 132.545 285.705C135.456 284.458 137.947 282.399 139.72 279.776C141.493 277.152 142.473 274.073 142.545 270.907Z" fill="black"/>
<path d="M203.805 216.127L216.95 205.954C217.191 205.711 217.326 205.383 217.326 205.041C217.326 204.698 217.191 204.37 216.95 204.127C216.705 203.891 216.378 203.76 216.038 203.76C215.698 203.76 215.371 203.891 215.126 204.127C215.126 204.127 201.289 214.775 200.838 215.185C199.813 216.274 200.872 217.09 201.661 217.702L215.143 228.124C215.39 228.357 215.716 228.487 216.055 228.487C216.394 228.487 216.72 228.357 216.967 228.124C217.208 227.882 217.344 227.554 217.344 227.213C217.344 226.871 217.208 226.543 216.967 226.301C212.564 222.909 208.177 219.517 203.805 216.127Z" fill="black"/>
<path d="M203.805 182.508L216.95 172.335C217.191 172.093 217.327 171.765 217.327 171.423C217.327 171.081 217.191 170.753 216.95 170.511C216.705 170.274 216.378 170.142 216.038 170.142C215.698 170.142 215.371 170.274 215.126 170.511C210.844 173.824 201.289 181.159 200.838 181.565C199.813 182.655 200.872 183.474 201.661 184.086L215.143 194.505C215.389 194.739 215.715 194.87 216.055 194.87C216.395 194.87 216.721 194.739 216.967 194.505C217.208 194.263 217.344 193.935 217.344 193.593C217.344 193.251 217.208 192.923 216.967 192.681L203.805 182.508Z" fill="black"/>
<path d="M203.805 148.119L216.95 137.946C217.191 137.704 217.327 137.376 217.327 137.034C217.327 136.692 217.191 136.364 216.95 136.122C216.705 135.886 216.378 135.755 216.038 135.755C215.698 135.755 215.371 135.886 215.126 136.122C210.844 139.435 201.289 146.77 200.838 147.18C199.813 148.266 200.872 149.085 201.661 149.697L215.143 160.119C215.391 160.353 215.718 160.484 216.058 160.484C216.399 160.484 216.726 160.353 216.974 160.119C217.094 160 217.189 159.858 217.254 159.701C217.319 159.545 217.352 159.377 217.352 159.208C217.352 159.038 217.319 158.87 217.254 158.714C217.189 158.557 217.094 158.415 216.974 158.296L203.805 148.119Z" fill="black"/>
<path d="M335.347 214.536L321.882 204.114C321.636 203.881 321.309 203.751 320.97 203.751C320.631 203.751 320.305 203.881 320.059 204.114C319.817 204.356 319.681 204.685 319.681 205.027C319.681 205.37 319.817 205.698 320.059 205.941L333.206 216.111L320.059 226.287C319.817 226.529 319.681 226.857 319.681 227.199C319.681 227.541 319.817 227.869 320.059 228.111C320.304 228.347 320.63 228.479 320.97 228.479C321.31 228.479 321.637 228.347 321.882 228.111C321.882 228.111 335.72 217.463 336.171 217.053C337.181 215.978 336.136 215.161 335.347 214.536Z" fill="black"/>
<path d="M323.122 183.439C324.147 182.349 323.088 181.53 322.299 180.922L308.834 170.499C308.587 170.267 308.261 170.137 307.922 170.137C307.583 170.137 307.257 170.267 307.01 170.499C306.769 170.741 306.633 171.069 306.633 171.411C306.633 171.753 306.769 172.081 307.01 172.323L320.155 182.496L307.003 192.68C306.762 192.922 306.626 193.251 306.626 193.593C306.626 193.936 306.762 194.264 307.003 194.507C307.249 194.742 307.575 194.873 307.915 194.873C308.255 194.873 308.582 194.742 308.827 194.507C313.116 191.181 322.671 183.849 323.122 183.439Z" fill="black"/>
<path d="M292.463 148.118L279.316 158.291C279.075 158.534 278.94 158.863 278.94 159.205C278.94 159.547 279.075 159.875 279.316 160.118C279.561 160.353 279.888 160.485 280.227 160.485C280.567 160.485 280.894 160.353 281.139 160.118C285.422 156.802 294.977 149.47 295.428 149.061C296.452 147.971 295.393 147.152 294.605 146.54L281.139 136.121C280.893 135.888 280.567 135.757 280.227 135.757C279.888 135.757 279.562 135.888 279.316 136.121C279.074 136.363 278.938 136.691 278.938 137.033C278.938 137.375 279.074 137.703 279.316 137.945L292.463 148.118Z" fill="black"/>
<path d="M262.67 137.214C260.493 136.416 258.118 136.333 255.89 136.976C253.663 137.62 251.698 138.958 250.283 140.795C248.867 142.632 248.075 144.872 248.02 147.19C247.965 149.508 248.65 151.784 249.977 153.686C251.304 155.587 253.203 157.017 255.398 157.765C257.592 158.514 259.969 158.543 262.181 157.849C264.394 157.155 266.327 155.773 267.701 153.904C269.074 152.036 269.816 149.778 269.818 147.459C269.822 145.225 269.138 143.043 267.859 141.21C266.58 139.377 264.769 137.982 262.67 137.214Z" fill="#CCEAFF"/>
<path d="M170.956 100.476C163.879 104.592 158.212 110.751 154.697 118.145C153.973 119.631 156.2 120.942 156.924 119.446C160.332 112.513 165.652 106.7 172.257 102.692C172.535 102.511 172.733 102.23 172.81 101.908C172.886 101.585 172.836 101.245 172.668 100.958C172.501 100.672 172.23 100.461 171.911 100.369C171.592 100.277 171.25 100.312 170.956 100.466V100.476Z" fill="black"/>
<path d="M168.821 92.6211C159.27 97.0841 151.652 104.845 147.368 114.477C146.685 115.983 148.925 117.298 149.594 115.782C153.675 106.54 160.968 99.0916 170.122 94.817C171.628 94.1306 170.317 91.904 168.821 92.6211Z" fill="black"/>
<path d="M31.5556 399.226C27.1473 414.144 25.6164 429.764 27.0444 445.254C27.1879 446.893 29.7764 446.91 29.6228 445.254C28.4752 429.996 29.9772 414.655 34.0623 399.909C34.1478 399.581 34.1006 399.232 33.9307 398.938C33.7608 398.644 33.482 398.429 33.1546 398.339C32.8272 398.249 32.4776 398.292 32.1816 398.458C31.8855 398.624 31.6667 398.9 31.5727 399.226H31.5556Z" fill="black"/>
<path d="M23.3167 398.622C16.876 414.857 16.2511 428.353 17.7844 445.254C17.9313 446.893 20.5164 446.91 20.3627 445.254C18.4947 424.634 20.6701 412.31 25.8062 399.309C26.4175 397.762 23.9246 397.092 23.3167 398.622Z" fill="black"/>
<path d="M380.335 355.628H348.835C348.504 355.645 348.193 355.788 347.965 356.028C347.737 356.268 347.61 356.586 347.61 356.917C347.61 357.248 347.737 357.566 347.965 357.806C348.193 358.046 348.504 358.189 348.835 358.206H380.335C380.51 358.215 380.685 358.188 380.849 358.128C381.013 358.067 381.163 357.974 381.29 357.853C381.417 357.732 381.518 357.587 381.587 357.426C381.656 357.265 381.692 357.092 381.692 356.917C381.692 356.742 381.656 356.569 381.587 356.408C381.518 356.247 381.417 356.102 381.29 355.981C381.163 355.86 381.013 355.767 380.849 355.706C380.685 355.645 380.51 355.619 380.335 355.628Z" fill="black"/>
<path d="M367.634 333.846L347.799 349.374C346.491 350.398 348.329 352.212 349.623 351.201L369.457 335.67C370.765 334.645 368.928 332.832 367.634 333.846Z" fill="black"/>
<path d="M349.745 364.196C348.454 363.171 346.614 364.998 347.921 366.019L365.625 379.864C366.919 380.888 368.756 379.064 367.448 378.04C361.542 373.432 355.641 368.817 349.745 364.196Z" fill="black"/>
<path d="M428.179 330.807H568.993C569.333 330.802 569.659 330.664 569.9 330.423C570.141 330.183 570.278 329.857 570.284 329.517V224.174C570.278 223.833 570.141 223.508 569.9 223.267C569.659 223.026 569.333 222.888 568.993 222.883H428.179C427.838 222.888 427.513 223.026 427.272 223.267C427.031 223.508 426.893 223.833 426.888 224.174V329.517C426.893 329.857 427.031 330.183 427.272 330.423C427.513 330.664 427.838 330.802 428.179 330.807ZM429.469 228.48C429.469 227.5 429.517 226.472 429.5 225.465C429.5 225.465 562.388 225.608 567.705 225.465C567.705 225.465 567.654 327.201 567.671 328.209C567.671 328.209 430.928 328.099 429.469 328.147V228.48Z" fill="black"/>
<path d="M576.159 222.883C575.819 222.889 575.494 223.027 575.253 223.268C575.012 223.509 574.874 223.834 574.868 224.174V329.517C574.873 329.857 575.011 330.183 575.252 330.423C575.493 330.664 575.818 330.802 576.159 330.807H618.085C618.426 330.802 618.751 330.664 618.992 330.423C619.233 330.183 619.371 329.857 619.376 329.517V224.174C619.371 223.833 619.233 223.508 618.992 223.267C618.751 223.026 618.426 222.888 618.085 222.883H576.159ZM616.75 328.226H577.45C577.45 328.226 577.556 229.341 577.45 225.465H616.784L616.75 328.226Z" fill="black"/>
<path d="M618.087 334.683H428.179C427.838 334.687 427.512 334.825 427.271 335.066C427.03 335.307 426.893 335.633 426.888 335.974C426.646 370.714 427.383 374.993 425.522 383.186C424.245 389.109 421.673 394.677 417.991 399.49C414.309 404.303 409.609 408.242 404.226 411.025C388.773 419.696 373.047 415.611 361.197 424.951C344.184 438.342 346.964 459.87 341.196 477.279C341.145 477.471 341.139 477.672 341.178 477.866C341.217 478.06 341.3 478.243 341.42 478.4C341.54 478.558 341.695 478.686 341.872 478.774C342.049 478.863 342.244 478.91 342.442 478.912H532.347C532.629 478.908 532.902 478.815 533.126 478.644C533.351 478.474 533.514 478.236 533.593 477.966C538.979 461.857 536.984 442.177 549.955 429.35C561.255 418.169 578.074 422.042 593.667 414.187C599.001 411.625 603.777 408.035 607.72 403.622C611.663 399.209 614.695 394.061 616.643 388.472C619.921 378.719 619.406 371.852 619.406 335.974C619.4 335.628 619.259 335.299 619.012 335.057C618.765 334.815 618.433 334.681 618.087 334.683ZM615.417 383.176C614.141 389.1 611.569 394.668 607.888 399.481C604.206 404.294 599.504 408.233 594.121 411.015C578.668 419.682 562.938 415.601 551.092 424.941C534.358 438.12 536.749 459.248 531.377 476.323C531.377 476.323 346.168 476.152 344.197 476.228C348.917 460.457 347.52 441.712 360.029 429.34C371.337 418.159 388.149 422.035 403.741 414.177C409.075 411.615 413.85 408.024 417.793 403.611C421.735 399.198 424.767 394.05 426.714 388.462C429.743 379.453 429.477 370.069 429.477 360.712C429.477 335.25 429.641 340.273 429.504 337.251C429.504 337.251 614.689 337.442 616.803 337.316C616.796 369.83 617.292 374.98 615.417 383.186V383.176Z" fill="black"/>
<path d="M530.491 482.833C530.235 482.765 465.995 482.792 340.276 482.792C339.995 482.797 339.723 482.892 339.499 483.062C339.276 483.232 339.112 483.469 339.033 483.738C332.421 504.939 310.162 503.593 291.701 509.566C286.112 511.308 280.9 514.082 276.333 517.745C275.435 518.476 276.207 519.947 277.245 519.947C425.893 519.947 458.069 520.142 465.268 519.985C468.092 519.924 467.754 519.732 468.065 519.568C483.917 506.66 506.975 510.508 521.711 498.938C526.339 495.189 529.729 490.131 531.437 484.425C531.482 484.258 531.492 484.084 531.469 483.913C531.445 483.743 531.387 483.578 531.299 483.43C531.211 483.282 531.094 483.152 530.955 483.05C530.817 482.948 530.659 482.874 530.491 482.833ZM481.595 509.566C476.215 511.255 471.182 513.899 466.736 517.369C466.736 517.369 282.528 517.304 281.302 517.274C289.025 512.888 297.478 509.936 306.252 508.559C315.1 506.622 324.502 504.662 331.789 498.938C336.118 495.379 339.364 490.679 341.16 485.371C341.16 485.371 526.345 485.517 528.302 485.463C521.055 504.887 499.698 503.709 481.595 509.566Z" fill="black"/>
<path d="M460.787 525.889C308.41 525.889 278.498 525.667 272.344 525.943C270.295 526.039 269.988 526.23 269.858 526.445C266.595 530.601 264.229 535.389 262.909 540.505C262.859 540.696 262.853 540.896 262.892 541.09C262.931 541.284 263.014 541.466 263.133 541.623C263.253 541.78 263.407 541.908 263.583 541.997C263.76 542.086 263.954 542.134 264.152 542.137H454.06C454.341 542.134 454.614 542.041 454.838 541.87C455.062 541.7 455.225 541.462 455.303 541.191C456.576 536.337 458.82 531.791 461.901 527.828C462.519 527.009 461.672 525.889 460.787 525.889ZM453.114 539.549C453.114 539.549 267.908 539.439 265.927 539.487C267.173 535.523 269.074 531.796 271.552 528.46C271.552 528.46 456.536 528.546 458.277 528.535C455.982 531.913 454.239 535.634 453.114 539.559V539.549Z" fill="black"/>
<path d="M428.179 219.007H618.087C618.427 219 618.751 218.861 618.992 218.621C619.232 218.38 619.371 218.056 619.378 217.716V115.238C619.372 114.898 619.235 114.572 618.994 114.331C618.753 114.09 618.427 113.953 618.087 113.948H428.179C427.838 113.953 427.513 114.09 427.272 114.331C427.031 114.572 426.893 114.898 426.888 115.238V217.716C426.893 218.056 427.031 218.382 427.272 218.623C427.513 218.864 427.838 219.001 428.179 219.007ZM572.794 116.526C572.794 116.526 614.662 116.645 616.796 116.567V141.175H572.794V116.526ZM472.468 116.526H570.215V141.175H472.468V116.526ZM429.469 116.526H469.886V141.175C469.886 141.175 431.604 141.052 429.469 141.134V116.526ZM429.51 143.757C429.51 143.757 614.662 143.88 616.796 143.798C616.796 143.798 616.717 213.771 616.796 216.421C616.796 216.421 431.617 216.298 429.483 216.384C429.469 133.106 429.452 147.216 429.51 143.76V143.757Z" fill="black"/>
<path d="M453.258 546.266H263.35C263.008 546.266 262.679 546.402 262.437 546.644C262.195 546.886 262.059 547.214 262.059 547.556C262.059 547.899 262.195 548.227 262.437 548.469C262.679 548.711 263.008 548.847 263.35 548.847H453.258C453.6 548.847 453.929 548.711 454.171 548.469C454.413 548.227 454.549 547.899 454.549 547.556C454.549 547.214 454.413 546.886 454.171 546.644C453.929 546.402 453.6 546.266 453.258 546.266Z" fill="black"/>
<path d="M453.258 553.95H263.35C263.008 553.95 262.679 554.086 262.437 554.328C262.195 554.57 262.059 554.898 262.059 555.24C262.059 555.583 262.195 555.911 262.437 556.153C262.679 556.395 263.008 556.531 263.35 556.531H453.258C453.6 556.531 453.929 556.395 454.171 556.153C454.413 555.911 454.549 555.583 454.549 555.24C454.549 554.898 454.413 554.57 454.171 554.328C453.929 554.086 453.6 553.95 453.258 553.95Z" fill="black"/>
<path d="M607.337 123.625H581.899C581.568 123.642 581.257 123.785 581.029 124.025C580.801 124.265 580.674 124.583 580.674 124.914C580.674 125.245 580.801 125.563 581.029 125.803C581.257 126.043 581.568 126.186 581.899 126.203H607.337C607.668 126.186 607.979 126.043 608.207 125.803C608.435 125.563 608.562 125.245 608.562 124.914C608.562 124.583 608.435 124.265 608.207 124.025C607.979 123.785 607.668 123.642 607.337 123.625Z" fill="black"/>
<path d="M607.191 131.142H581.749C581.419 131.159 581.108 131.303 580.88 131.542C580.652 131.782 580.525 132.101 580.525 132.431C580.525 132.762 580.652 133.081 580.88 133.32C581.108 133.56 581.419 133.704 581.749 133.721H607.191C607.522 133.704 607.833 133.56 608.061 133.32C608.289 133.081 608.416 132.762 608.416 132.431C608.416 132.101 608.289 131.782 608.061 131.542C607.833 131.303 607.522 131.159 607.191 131.142Z" fill="black"/>
<path d="M443.182 136.415C456.5 136.508 456.179 136.6 456.692 135.951C457.149 135.466 457.105 136.139 457.013 122.585C457.009 122.243 456.872 121.917 456.631 121.676C456.389 121.435 456.063 121.297 455.722 121.294H443.182C442.841 121.298 442.515 121.436 442.274 121.677C442.033 121.918 441.896 122.244 441.891 122.585V135.125C441.896 135.466 442.033 135.791 442.274 136.032C442.515 136.274 442.841 136.411 443.182 136.415ZM444.469 123.872H454.431V133.834H444.469V123.872Z" fill="black"/>
<path d="M540.23 365.22C538.591 366.489 537.272 368.123 536.378 369.993C535.484 371.862 535.039 373.915 535.08 375.987C534.585 381.11 535.733 385.389 532.82 389.907C531.951 391.29 530.573 392.275 528.984 392.65C527.394 393.024 525.721 392.758 524.327 391.908C515.369 386.366 525.276 370.489 514.061 364.124C512.705 363.403 511.209 362.985 509.675 362.899C508.142 362.812 506.608 363.06 505.18 363.624C503.751 364.187 502.462 365.055 501.401 366.165C500.341 367.275 499.533 368.603 499.035 370.056C496.986 375.94 499.496 382.418 496.341 387.995C493.588 393.616 485.679 391.997 483.77 385.836C482.517 378.797 482.242 371.618 482.954 364.503C483.125 362.853 480.543 362.864 480.376 364.503C479.75 370.558 479.823 376.666 480.591 382.705C480.506 385.495 481.48 388.215 483.317 390.317C485.154 392.42 487.718 393.751 490.494 394.042C497.078 394.442 500.131 387.677 500.589 382.138C500.565 378.737 500.776 375.339 501.221 371.968C501.486 370.565 502.122 369.258 503.062 368.184C504.003 367.11 505.214 366.307 506.569 365.859C507.925 365.411 509.376 365.334 510.771 365.636C512.167 365.938 513.456 366.608 514.505 367.576C515.706 369.044 516.591 370.743 517.107 372.568C517.623 374.393 517.758 376.304 517.503 378.183C517.192 381.64 517.524 385.124 518.484 388.459C519.026 389.973 519.893 391.35 521.024 392.494C522.155 393.638 523.522 394.521 525.03 395.081C531.177 396.925 536.224 391.973 537.157 385.689C538.219 379.71 536.197 371.295 541.46 367.498C542.508 366.9 543.692 366.579 544.899 366.567C546.107 366.554 547.297 366.85 548.358 367.426C555.646 371.415 553.822 383.33 552.695 392.113C552.497 393.759 555.086 393.745 555.277 392.113C555.84 388.152 556.156 384.16 556.223 380.161C556.377 376.79 555.768 373.427 554.44 370.325C553.888 369.019 553.071 367.841 552.04 366.865C551.01 365.89 549.789 365.139 548.454 364.659C547.119 364.18 545.699 363.982 544.283 364.078C542.868 364.175 541.488 364.564 540.23 365.22Z" fill="black"/>
<path d="M507.492 194.108C507.912 194.347 505.736 194.275 538.155 194.275C538.377 194.263 538.592 194.196 538.782 194.08C538.971 193.963 539.128 193.801 539.239 193.608C539.35 193.415 539.411 193.198 539.416 192.975C539.421 192.753 539.37 192.533 539.268 192.335C535.071 184.696 524.867 167.614 524.242 166.549C524.153 166.402 524.037 166.275 523.899 166.174C523.761 166.073 523.604 166 523.438 165.959C523.272 165.918 523.099 165.911 522.93 165.937C522.761 165.963 522.599 166.023 522.453 166.112C522.026 166.374 523.057 164.326 506.993 192.335C506.908 192.484 506.854 192.648 506.833 192.818C506.813 192.988 506.826 193.161 506.872 193.326C506.918 193.49 506.997 193.645 507.103 193.779C507.21 193.913 507.342 194.025 507.492 194.108ZM523.132 169.762L535.911 191.697H510.353C511.381 189.948 522.111 171.507 523.132 169.762Z" fill="black"/>
<path d="M523.488 121.481C523.309 121.185 523.02 120.973 522.685 120.891C522.349 120.808 521.995 120.862 521.699 121.04C521.282 121.296 521.613 120.61 513.161 135.383C513.051 135.58 512.993 135.802 512.994 136.027C512.995 136.253 513.054 136.474 513.166 136.67C513.279 136.865 513.44 137.028 513.634 137.143C513.828 137.257 514.049 137.32 514.274 137.323H530.482C530.704 137.311 530.92 137.244 531.109 137.127C531.299 137.011 531.456 136.849 531.566 136.656C531.677 136.463 531.738 136.246 531.743 136.023C531.748 135.801 531.697 135.581 531.595 135.383L523.488 121.481ZM516.515 134.752L522.375 124.694L528.235 134.752H516.515Z" fill="black"/>
<path d="M474.037 266.666H524.562C524.893 266.649 525.204 266.506 525.432 266.266C525.66 266.026 525.787 265.708 525.787 265.377C525.787 265.046 525.66 264.728 525.432 264.488C525.204 264.248 524.893 264.105 524.562 264.088H474.037C473.707 264.105 473.396 264.248 473.168 264.488C472.94 264.728 472.813 265.046 472.813 265.377C472.813 265.708 472.94 266.026 473.168 266.266C473.396 266.506 473.707 266.649 474.037 266.666Z" fill="black"/>
<path d="M474.037 276.348H524.2C524.53 276.331 524.842 276.188 525.07 275.948C525.297 275.708 525.424 275.39 525.424 275.059C525.424 274.728 525.297 274.41 525.07 274.17C524.842 273.93 524.53 273.786 524.2 273.769H474.034C473.703 273.786 473.392 273.93 473.164 274.17C472.936 274.41 472.809 274.728 472.809 275.059C472.809 275.39 472.936 275.708 473.164 275.948C473.392 276.188 473.703 276.331 474.034 276.348H474.037Z" fill="black"/>
<path d="M473.318 284.94H524.543C524.874 284.923 525.185 284.78 525.413 284.54C525.641 284.3 525.768 283.982 525.768 283.651C525.768 283.32 525.641 283.002 525.413 282.762C525.185 282.522 524.874 282.379 524.543 282.362H473.318C472.988 282.379 472.677 282.522 472.449 282.762C472.221 283.002 472.094 283.32 472.094 283.651C472.094 283.982 472.221 284.3 472.449 284.54C472.677 284.78 472.988 284.923 473.318 284.94Z" fill="black"/>
<path d="M555.138 239.428L562.896 232.133C564.109 230.996 562.282 229.172 561.073 230.31L553.314 237.604C552.102 238.741 553.915 240.565 555.138 239.428Z" fill="black"/>
<path d="M555.694 315.768L562.183 321.648C563.409 322.761 565.256 320.945 564.006 319.825L557.518 313.944C556.305 312.831 554.461 314.651 555.694 315.768Z" fill="black"/>
<path d="M440.194 238.595C441.417 239.715 443.247 237.912 442.021 236.772C439.734 234.671 437.567 232.442 435.533 230.095C434.44 228.842 432.623 230.672 433.709 231.919C435.744 234.264 437.909 236.493 440.194 238.595Z" fill="black"/>
<path d="M440.468 315.658C438.337 317.054 436.277 318.548 434.29 320.142C432.992 321.166 434.829 322.99 436.113 321.965C437.934 320.518 439.823 319.157 441.772 317.888C443.155 316.986 441.864 314.75 440.468 315.658Z" fill="black"/>
<path d="M586.734 247.321H606.35C606.66 247.275 606.944 247.12 607.148 246.883C607.353 246.646 607.466 246.343 607.466 246.03C607.466 245.716 607.353 245.413 607.148 245.176C606.944 244.939 606.66 244.784 606.35 244.739H586.734C586.392 244.739 586.064 244.875 585.821 245.117C585.579 245.359 585.443 245.687 585.443 246.03C585.443 246.372 585.579 246.7 585.821 246.942C586.064 247.185 586.392 247.321 586.734 247.321Z" fill="black"/>
<path d="M606.352 254.581H586.737C586.406 254.598 586.095 254.741 585.867 254.981C585.639 255.221 585.512 255.539 585.512 255.87C585.512 256.201 585.639 256.519 585.867 256.759C586.095 256.999 586.406 257.142 586.737 257.159H606.352C606.527 257.168 606.702 257.142 606.866 257.081C607.031 257.02 607.181 256.927 607.308 256.806C607.435 256.685 607.536 256.54 607.605 256.379C607.674 256.218 607.71 256.045 607.71 255.87C607.71 255.695 607.674 255.522 607.605 255.361C607.536 255.2 607.435 255.055 607.308 254.934C607.181 254.813 607.031 254.72 606.866 254.659C606.702 254.599 606.527 254.572 606.352 254.581Z" fill="black"/>
<path d="M586.734 266.667H606.35C606.692 266.667 607.021 266.531 607.263 266.289C607.505 266.047 607.641 265.718 607.641 265.376C607.641 265.034 607.505 264.705 607.263 264.463C607.021 264.221 606.692 264.085 606.35 264.085H586.734C586.392 264.085 586.064 264.221 585.821 264.463C585.579 264.705 585.443 265.034 585.443 265.376C585.443 265.718 585.579 266.047 585.821 266.289C586.064 266.531 586.392 266.667 586.734 266.667Z" fill="black"/>
<path d="M586.736 276.348H606.351C606.527 276.357 606.702 276.33 606.867 276.269C607.031 276.208 607.182 276.114 607.309 275.994C607.437 275.873 607.538 275.727 607.607 275.566C607.676 275.404 607.712 275.231 607.712 275.055C607.712 274.88 607.676 274.706 607.607 274.545C607.538 274.383 607.437 274.238 607.309 274.117C607.182 273.996 607.031 273.902 606.867 273.841C606.702 273.78 606.527 273.754 606.351 273.763H586.736C586.404 273.78 586.092 273.923 585.864 274.164C585.635 274.404 585.508 274.723 585.508 275.055C585.508 275.387 585.635 275.706 585.864 275.947C586.092 276.187 586.404 276.331 586.736 276.348Z" fill="black"/>
<path d="M606.352 290.056H586.737C586.406 290.073 586.095 290.216 585.867 290.456C585.639 290.696 585.512 291.014 585.512 291.345C585.512 291.676 585.639 291.994 585.867 292.234C586.095 292.474 586.406 292.617 586.737 292.634H606.352C606.664 292.592 606.95 292.438 607.157 292.201C607.364 291.964 607.478 291.66 607.478 291.345C607.478 291.031 607.364 290.727 607.157 290.49C606.95 290.253 606.664 290.099 606.352 290.056Z" fill="black"/>
<path d="M606.352 299.731H586.737C586.406 299.748 586.095 299.891 585.867 300.131C585.639 300.371 585.512 300.689 585.512 301.02C585.512 301.351 585.639 301.669 585.867 301.909C586.095 302.149 586.406 302.292 586.737 302.309H606.352C606.65 302.249 606.918 302.088 607.111 301.853C607.304 301.618 607.409 301.324 607.409 301.02C607.409 300.716 607.304 300.421 607.111 300.186C606.918 299.951 606.65 299.79 606.352 299.731Z" fill="black"/>
<path d="M170.886 137.829V273.011C170.855 276.23 171.474 279.422 172.707 282.396C173.941 285.369 175.762 288.062 178.062 290.314C180.363 292.566 183.095 294.329 186.094 295.498C189.093 296.667 192.298 297.218 195.515 297.118C325.93 297.326 340.53 297.354 344.334 296.691C349.473 295.713 354.137 293.041 357.58 289.102C361.023 285.164 363.048 280.185 363.331 274.961C363.396 273.882 363.97 257.763 363.372 140.205C363.441 137.192 363.213 134.179 362.689 131.21C361.401 126.293 358.528 121.938 354.516 118.818C350.503 115.697 345.575 113.986 340.492 113.948H194.607C191.448 113.838 188.301 114.381 185.363 115.545C182.425 116.708 179.758 118.466 177.531 120.708C175.304 122.95 173.564 125.628 172.421 128.574C171.277 131.521 170.755 134.671 170.886 137.829ZM193.767 116.529H340.495C345.631 116.574 350.563 118.545 354.314 122.054C358.065 125.562 360.362 130.351 360.75 135.472C360.856 137.18 360.849 274.234 360.651 276.14C360.037 281.218 357.582 285.894 353.752 289.284C349.922 292.675 344.982 294.543 339.867 294.536H195.334C192.574 294.647 189.82 294.214 187.227 293.26C184.635 292.306 182.256 290.851 180.227 288.978C178.197 287.105 176.556 284.85 175.398 282.342C174.24 279.835 173.588 277.124 173.478 274.364C173.458 273.739 173.478 273.11 173.478 272.486V137.651C173.381 134.92 173.833 132.197 174.808 129.644C175.784 127.091 177.262 124.76 179.156 122.789C181.049 120.819 183.32 119.249 185.832 118.173C188.344 117.097 191.047 116.537 193.78 116.526L193.767 116.529Z" fill="black"/>
<path d="M407.753 437.246H376.045C375.702 437.246 375.374 437.382 375.132 437.624C374.89 437.866 374.754 438.194 374.754 438.537C374.754 438.879 374.89 439.207 375.132 439.449C375.374 439.691 375.702 439.827 376.045 439.827H407.753C408.095 439.827 408.424 439.691 408.666 439.449C408.908 439.207 409.044 438.879 409.044 438.537C409.044 438.194 408.908 437.866 408.666 437.624C408.424 437.382 408.095 437.246 407.753 437.246Z" fill="black"/>
<path d="M404.525 444.264H374.429C374.098 444.281 373.787 444.424 373.559 444.664C373.331 444.904 373.204 445.222 373.204 445.553C373.204 445.884 373.331 446.202 373.559 446.442C373.787 446.682 374.098 446.825 374.429 446.842H404.525C404.855 446.825 405.167 446.682 405.395 446.442C405.622 446.202 405.749 445.884 405.749 445.553C405.749 445.222 405.622 444.904 405.395 444.664C405.167 444.424 404.855 444.281 404.525 444.264Z" fill="black"/>
<path d="M534.794 425.72H373.339C372.997 425.72 372.669 425.856 372.426 426.098C372.184 426.34 372.048 426.669 372.048 427.011C372.048 427.353 372.184 427.682 372.426 427.924C372.669 428.166 372.997 428.302 373.339 428.302H534.794C535.136 428.302 535.464 428.166 535.706 427.924C535.948 427.682 536.084 427.353 536.084 427.011C536.084 426.669 535.948 426.34 535.706 426.098C535.464 425.856 535.136 425.72 534.794 425.72Z" fill="black"/>
<path d="M505.936 437.246H452.15C451.807 437.246 451.479 437.382 451.237 437.624C450.995 437.867 450.859 438.195 450.859 438.537C450.859 438.88 450.995 439.208 451.237 439.45C451.479 439.692 451.807 439.828 452.15 439.828H505.936C506.109 439.833 506.281 439.804 506.443 439.741C506.604 439.678 506.751 439.584 506.876 439.464C507 439.344 507.099 439.2 507.167 439.041C507.235 438.881 507.27 438.71 507.271 438.537C507.274 438.363 507.241 438.19 507.175 438.029C507.108 437.868 507.009 437.723 506.884 437.602C506.759 437.481 506.61 437.387 506.447 437.326C506.284 437.264 506.11 437.237 505.936 437.246Z" fill="black"/>
<path d="M500.463 444.263H449.416C449.085 444.281 448.774 444.424 448.546 444.664C448.318 444.904 448.191 445.222 448.191 445.553C448.191 445.883 448.318 446.202 448.546 446.442C448.774 446.682 449.085 446.825 449.416 446.842H500.47C500.645 446.851 500.82 446.824 500.984 446.763C501.148 446.703 501.299 446.609 501.426 446.489C501.552 446.368 501.654 446.223 501.723 446.062C501.792 445.901 501.827 445.728 501.827 445.553C501.827 445.377 501.792 445.204 501.723 445.043C501.654 444.882 501.552 444.737 501.426 444.617C501.299 444.496 501.148 444.403 500.984 444.342C500.82 444.281 500.645 444.254 500.47 444.263H500.463Z" fill="black"/>
<path d="M399.484 422.376L414.168 418.985C415.787 418.613 415.1 416.127 413.485 416.499L398.801 419.89C397.182 420.262 397.865 422.752 399.484 422.376Z" fill="black"/>
<path d="M542.827 422.097L531.732 418.06C530.168 417.493 529.495 419.983 531.049 420.546C534.746 421.896 538.445 423.242 542.144 424.583C543.705 425.153 544.378 422.66 542.827 422.097Z" fill="black"/>
<path d="M435.355 343.244C438.553 344.464 441.666 345.894 444.675 347.526C446.133 348.319 447.437 346.092 445.976 345.3C442.769 343.566 439.45 342.048 436.042 340.754C434.488 340.164 433.818 342.657 435.355 343.244Z" fill="black"/>
<path d="M611.342 340.209L602.35 345.168C600.895 345.97 602.196 348.2 603.651 347.394L612.643 342.435C614.097 341.619 612.796 339.393 611.342 340.209Z" fill="black"/>
<path d="M478.357 122.209C478.112 121.985 477.79 121.864 477.458 121.872C477.126 121.88 476.81 122.015 476.575 122.25C476.34 122.485 476.205 122.801 476.197 123.133C476.189 123.465 476.31 123.787 476.534 124.032C480.29 127.918 484.111 131.741 487.998 135.5C488.241 135.735 488.567 135.866 488.906 135.864C489.244 135.861 489.568 135.726 489.808 135.487C490.048 135.247 490.184 134.923 490.187 134.585C490.19 134.246 490.06 133.92 489.825 133.676C486.066 129.79 482.243 125.967 478.357 122.209Z" fill="black"/>
<path d="M487.853 120.966C487.607 120.742 487.285 120.622 486.953 120.629C486.621 120.637 486.305 120.772 486.07 121.007C485.836 121.242 485.7 121.558 485.693 121.89C485.685 122.222 485.806 122.544 486.029 122.789L498.747 135.51C498.99 135.746 499.316 135.877 499.655 135.874C499.993 135.872 500.317 135.736 500.557 135.497C500.797 135.258 500.933 134.934 500.936 134.595C500.939 134.256 500.809 133.93 500.574 133.687C496.405 129.368 492.165 125.127 487.853 120.966Z" fill="black"/>
<path d="M533.788 120.966C533.545 120.73 533.219 120.599 532.88 120.602C532.541 120.604 532.217 120.74 531.978 120.979C531.738 121.218 531.602 121.542 531.599 121.881C531.596 122.219 531.726 122.546 531.961 122.789C536.132 127.103 540.373 131.344 544.685 135.51C544.808 135.627 544.954 135.718 545.112 135.778C545.271 135.839 545.44 135.867 545.61 135.861C545.78 135.855 545.946 135.816 546.101 135.745C546.255 135.674 546.394 135.574 546.509 135.449C546.731 135.209 546.855 134.894 546.855 134.568C546.855 134.241 546.731 133.926 546.509 133.686L533.788 120.966Z" fill="black"/>
<path d="M244.567 191.14C244.997 191.386 243.341 191.939 267.512 191.308C267.735 191.297 267.952 191.231 268.142 191.115C268.332 190.999 268.491 190.837 268.602 190.643C268.713 190.45 268.774 190.232 268.779 190.009C268.783 189.786 268.732 189.566 268.629 189.368C265.508 183.685 257.923 170.992 257.462 170.203C257.283 169.908 256.994 169.697 256.66 169.615C256.325 169.533 255.971 169.587 255.676 169.766C255.242 170.025 256.093 168.741 244.065 189.368C243.981 189.517 243.927 189.681 243.907 189.851C243.887 190.021 243.9 190.194 243.947 190.359C243.994 190.523 244.073 190.677 244.179 190.811C244.285 190.946 244.417 191.057 244.567 191.14ZM256.349 173.416L265.269 188.729H247.429L256.349 173.416Z" fill="black"/>
<path d="M273.486 191.14C273.916 191.386 272.263 191.939 296.435 191.308C296.657 191.298 296.874 191.231 297.064 191.115C297.255 190.999 297.413 190.837 297.524 190.644C297.635 190.45 297.695 190.232 297.7 190.009C297.704 189.786 297.652 189.565 297.548 189.368C294.427 183.685 286.842 170.992 286.384 170.203C286.296 170.057 286.179 169.929 286.041 169.828C285.903 169.727 285.746 169.654 285.58 169.613C285.414 169.573 285.241 169.565 285.072 169.591C284.903 169.618 284.741 169.677 284.595 169.766C284.113 170.056 284.888 169.018 272.984 189.368C272.9 189.517 272.847 189.682 272.827 189.851C272.807 190.021 272.82 190.194 272.867 190.358C272.914 190.523 272.992 190.677 273.099 190.811C273.205 190.945 273.336 191.057 273.486 191.14ZM285.271 173.416L294.191 188.729H276.351L285.271 173.416Z" fill="black"/>
<path d="M266.756 205.729H249.476C249.136 205.734 248.811 205.872 248.57 206.113C248.33 206.354 248.193 206.68 248.188 207.02V224.296C248.193 224.637 248.33 224.962 248.57 225.203C248.811 225.444 249.136 225.582 249.476 225.587C268.88 225.724 267.05 225.727 267.664 225.201C268.214 224.614 268.176 225.741 268.047 207.02C268.042 206.679 267.905 206.353 267.664 206.112C267.423 205.871 267.097 205.733 266.756 205.729ZM265.465 223.006H250.78V208.321H265.465V223.006Z" fill="black"/>
<path d="M292.747 205.746L281.583 224.911C281.499 225.06 281.445 225.224 281.424 225.393C281.403 225.563 281.416 225.735 281.462 225.9C281.508 226.065 281.587 226.219 281.692 226.353C281.798 226.487 281.929 226.6 282.078 226.683C282.533 226.939 281.088 226.851 305.027 226.851C305.249 226.839 305.465 226.771 305.654 226.655C305.844 226.538 306.001 226.376 306.112 226.184C306.222 225.991 306.283 225.773 306.288 225.551C306.293 225.329 306.242 225.108 306.141 224.911C306.141 224.911 295.435 206.531 294.974 205.746C294.858 205.554 294.694 205.396 294.499 205.286C294.304 205.176 294.084 205.118 293.86 205.118C293.636 205.118 293.416 205.176 293.221 205.286C293.026 205.396 292.863 205.554 292.747 205.746ZM284.94 224.269L293.86 208.959L302.784 224.269H284.94Z" fill="black"/>
<path d="M239.91 205.121L222.388 222.644C222.164 222.889 222.043 223.211 222.051 223.543C222.059 223.875 222.194 224.191 222.429 224.426C222.664 224.661 222.98 224.796 223.312 224.804C223.644 224.812 223.966 224.691 224.211 224.467C230.153 218.73 235.995 212.889 241.737 206.945C241.972 206.701 242.102 206.375 242.099 206.036C242.096 205.698 241.96 205.374 241.72 205.135C241.481 204.895 241.157 204.76 240.818 204.757C240.479 204.755 240.153 204.886 239.91 205.121Z" fill="black"/>
<path d="M224.211 157.366C230.153 151.628 235.995 145.787 241.737 139.84C241.972 139.596 242.102 139.27 242.099 138.931C242.096 138.593 241.96 138.269 241.72 138.03C241.481 137.79 241.157 137.655 240.818 137.652C240.479 137.65 240.153 137.781 239.91 138.016L222.388 155.542C222.164 155.787 222.043 156.11 222.051 156.442C222.059 156.773 222.194 157.09 222.429 157.324C222.664 157.559 222.98 157.694 223.312 157.702C223.644 157.71 223.966 157.589 224.211 157.366Z" fill="black"/>
<path d="M224.212 191.051C230.151 185.307 235.993 179.465 241.737 173.525C241.973 173.282 242.103 172.955 242.1 172.617C242.097 172.278 241.96 171.954 241.721 171.715C241.481 171.476 241.157 171.34 240.818 171.338C240.48 171.335 240.153 171.466 239.91 171.702C233.975 177.446 228.134 183.286 222.388 189.224C222.152 189.467 222.021 189.793 222.024 190.132C222.026 190.471 222.162 190.795 222.401 191.034C222.64 191.274 222.964 191.41 223.303 191.413C223.642 191.416 223.968 191.286 224.212 191.051Z" fill="black"/>
<path d="M190.555 158.95C190.881 158.939 191.191 158.805 191.423 158.574C191.654 158.343 191.789 158.034 191.801 157.707V139.194C191.784 138.864 191.641 138.553 191.401 138.325C191.161 138.097 190.843 137.97 190.512 137.97C190.181 137.97 189.863 138.097 189.623 138.325C189.383 138.553 189.24 138.864 189.223 139.194V157.707C189.228 157.876 189.267 158.043 189.337 158.197C189.408 158.351 189.507 158.489 189.631 158.605C189.755 158.72 189.9 158.81 190.058 158.869C190.217 158.929 190.385 158.956 190.555 158.95Z" fill="black"/>
<path d="M190.555 193.022C190.882 193.011 191.192 192.876 191.424 192.645C191.655 192.414 191.79 192.103 191.801 191.776V173.256C191.784 172.926 191.641 172.615 191.401 172.387C191.161 172.159 190.843 172.032 190.512 172.032C190.181 172.032 189.863 172.159 189.623 172.387C189.383 172.615 189.24 172.926 189.223 173.256V191.769C189.228 191.939 189.266 192.106 189.335 192.261C189.405 192.416 189.505 192.556 189.628 192.672C189.752 192.789 189.898 192.88 190.057 192.94C190.215 193 190.385 193.028 190.555 193.022Z" fill="black"/>
<path d="M190.561 226.707C190.887 226.695 191.195 226.56 191.425 226.329C191.655 226.099 191.789 225.79 191.801 225.464V206.948C191.784 206.618 191.641 206.307 191.401 206.079C191.161 205.851 190.843 205.724 190.512 205.724C190.181 205.724 189.863 205.851 189.623 206.079C189.383 206.307 189.24 206.618 189.223 206.948V225.464C189.229 225.634 189.268 225.801 189.339 225.955C189.41 226.109 189.51 226.248 189.634 226.363C189.759 226.479 189.905 226.569 190.064 226.628C190.223 226.687 190.392 226.714 190.561 226.707Z" fill="black"/>
<path d="M190.555 260.277C190.881 260.266 191.192 260.13 191.423 259.899C191.654 259.668 191.789 259.358 191.801 259.031V240.518C191.784 240.188 191.641 239.877 191.401 239.649C191.161 239.421 190.843 239.294 190.512 239.294C190.181 239.294 189.863 239.421 189.623 239.649C189.383 239.877 189.24 240.188 189.223 240.518V259.031C189.234 259.373 189.381 259.696 189.631 259.93C189.88 260.163 190.213 260.288 190.555 260.277Z" fill="black"/>
<path d="M249.809 419.412C246.196 419.815 168.191 428.025 158.97 428.947C153.199 420.676 148.08 413.579 141.872 405.595C154.39 411.356 168.256 413.545 181.94 411.923C195.531 410.268 208.218 404.248 218.094 394.766C218.094 394.766 282.009 394.766 282.822 394.766C290.422 394.715 297.905 392.893 304.677 389.445C311.449 385.997 317.324 381.017 321.835 374.901C324.991 370.335 321.261 374.949 351.669 324.578C352.991 322.424 353.715 319.956 353.764 317.43C353.813 314.903 353.186 312.409 351.948 310.205C350.711 308.002 348.907 306.169 346.723 304.897C344.539 303.624 342.056 302.958 339.528 302.968H199.394C194.021 302.765 188.648 303.358 183.449 304.726C170.677 308.568 162.771 316.611 156.498 328.447L154.152 332.449L154.131 332.531C153.862 332.91 153.865 332.941 148.281 342.462C141.586 336.002 134.071 330.448 125.93 325.944C122.489 324.114 118.653 323.153 114.755 323.146C110.858 323.138 107.017 324.083 103.569 325.899C81.5661 337.398 55.8101 368.379 46.1662 414.788C43.8521 427.901 42.8795 441.215 43.2634 454.525C42.4527 464.047 44.2781 473.609 48.5396 482.163C50.778 485.878 53.8185 489.045 57.4387 491.433C61.059 493.822 65.1674 495.37 69.4633 495.966C74.9273 496.858 73.9506 496.615 124.035 496.615C124.779 499.269 125.445 501.939 126.156 504.599C126.232 504.872 126.395 505.111 126.62 505.283C126.845 505.454 127.119 505.547 127.402 505.549H206.924C207.149 505.545 207.37 505.482 207.564 505.367C207.758 505.252 207.919 505.089 208.032 504.893C208.144 504.697 208.203 504.476 208.204 504.25C208.205 504.024 208.148 503.802 208.037 503.606C206.48 501.297 204.964 498.951 203.454 496.615H249.809C250.15 496.611 250.474 496.474 250.715 496.233C250.955 495.993 251.092 495.668 251.097 495.328V420.71C251.116 420.536 251.095 420.36 251.037 420.195C250.979 420.029 250.885 419.879 250.762 419.755C250.638 419.631 250.489 419.535 250.324 419.476C250.16 419.417 249.984 419.395 249.809 419.412ZM210.981 397.45C191.912 411.916 163.833 414.652 138.194 400.968C135.462 397.607 132.607 394.343 129.619 391.215C138.156 377.896 144.836 364.277 155.019 352.393C158.141 355.466 161.187 358.68 164.465 361.613C166.033 363.276 168.013 364.494 170.204 365.144C172.395 365.793 174.719 365.851 176.94 365.312C181.818 363.277 185.794 359.546 188.135 354.807C194.026 345.066 201.091 336.084 209.171 328.064C212.943 324.141 217.178 320.691 221.783 317.789C229.77 312.837 241.108 312.407 247.101 319.821C247.784 320.681 248.348 321.641 249.034 322.512C250.226 324.475 251.466 324.561 253.494 325.397C255.311 326.132 257.097 326.944 258.887 327.74C260.421 328.401 261.878 329.226 263.234 330.202C265.85 332.507 270.224 336.756 267.947 340.594C265.556 344.6 260.024 343.183 256.677 341.574C255.458 340.99 253.887 342.619 255.113 343.599C257.965 345.859 260.303 348.701 261.97 351.935C263.527 354.975 265.17 359.278 263.152 362.471C262.766 363.159 262.185 363.719 261.482 364.078C260.779 364.437 259.985 364.58 259.201 364.489C257.375 364.049 255.661 363.235 254.167 362.098C251.026 360.08 248.254 357.539 245.971 354.585C245.854 354.395 245.69 354.239 245.495 354.13C245.3 354.021 245.081 353.964 244.858 353.964C244.635 353.964 244.415 354.021 244.22 354.13C244.025 354.239 243.862 354.395 243.744 354.585C234.585 369.977 225.488 386.444 210.981 397.45ZM328.979 358.212C328.693 358.612 328.546 358.895 323.635 367.279C319.642 374.846 313.648 381.17 306.305 385.562C298.963 389.953 290.555 392.243 281.999 392.181H220.734C230.243 381.666 238.411 370.013 245.052 357.488C246.841 359.586 248.865 361.472 251.083 363.109C253.656 365.504 257 366.9 260.512 367.047C262.031 366.787 263.427 366.048 264.496 364.939C265.565 363.829 266.251 362.407 266.454 360.879C266.847 357.307 266.049 353.706 264.183 350.634C263.265 348.852 262.151 347.179 260.86 345.645C268.715 346.932 273.53 339.928 270.05 334.396C270.05 334.396 341.082 334.413 342.916 334.396L328.932 358.239L328.979 358.212ZM161.47 325.066C164.939 319.124 169.905 314.194 175.872 310.768C181.839 307.342 188.599 305.539 195.48 305.539C196.129 305.539 338.408 305.437 341.075 305.614C343.878 305.984 346.451 307.357 348.319 309.479C350.187 311.6 351.223 314.327 351.235 317.153C351.235 321.439 348.332 325.155 346.252 328.703L344.436 331.804H268.356C267.36 330.564 266.256 329.414 265.057 328.368C262.297 326.353 259.25 324.765 256.018 323.656C254.761 323.126 251.92 321.982 251.92 321.982C250.381 319.72 248.615 317.62 246.651 315.716C243.9 313.679 240.702 312.331 237.324 311.784C233.946 311.236 230.485 311.506 227.233 312.571C222.176 314.271 217.514 316.972 213.525 320.514C209.436 324.003 205.597 327.776 202.037 331.804C202.037 331.804 159.367 331.708 157.557 331.725L161.47 325.066ZM156.006 334.386H199.845C194.901 340.07 190.433 346.151 186.485 352.567C185.103 354.932 183.502 357.163 181.704 359.23C179.795 361.419 177.153 362.836 174.273 363.215C171.58 363.191 168.987 362.186 166.982 360.387C163.226 357.184 156.518 349.982 155.501 349.354C155.592 349.402 155.678 349.46 155.757 349.528C155.528 349.186 150.563 344.555 150.214 344.234C152.076 341.089 154.647 336.698 156.003 334.403L156.006 334.386ZM115.511 325.698C118.383 325.721 121.209 326.423 123.758 327.747C127.072 329.324 130.23 331.21 133.191 333.378C140.239 338.567 146.881 344.287 153.059 350.487C142.606 362.621 135.209 377.268 127.662 389.172C120.866 382.301 113.705 376.052 104.167 374.727L103.122 373.983C96.7146 369.276 92.3581 362.29 90.9505 354.466C89.1371 342.22 102.637 325.746 115.508 325.698H115.511ZM55.7487 390.89C63.4258 368.571 77.2482 348.872 95.6256 334.061C91.0174 339.119 88.378 345.663 88.1877 352.502C88.5527 356.709 89.7435 360.802 91.6918 364.549C93.6402 368.295 96.308 371.62 99.5426 374.334C85.6265 374.529 73.5032 382.933 65.9834 392.676C56.1531 405.032 49.3973 419.545 46.272 435.022C47.0649 419.902 50.2628 405.004 55.7452 390.89H55.7487ZM91.5174 494.023C97.6125 491.465 102.757 487.068 106.233 481.446C108.376 477.645 109.985 473.566 111.014 469.326C111.628 467.031 112.414 464.75 113.063 462.441C116.827 472.852 120.244 483.385 123.308 494.023H91.5174ZM204.527 502.953C204.527 502.953 129.144 502.909 128.372 502.923C124.37 487.611 119.595 472.513 114.067 457.684C113.664 456.602 111.854 456.318 111.577 457.684C111.01 460.519 110.071 463.319 109.272 466.095C108.296 470.315 106.886 474.422 105.065 478.352C102.438 483.301 98.4613 487.404 93.5966 490.184C88.7319 492.965 83.1785 494.309 77.5807 494.061C58.4021 494.02 47.1429 483.997 45.9579 462.643C45.7362 445.97 49.0923 429.443 55.7999 414.177C60.7081 402.916 68.131 392.929 77.4988 384.982C86.4939 377.848 99.949 374.256 111.089 379.491C114.835 381.37 118.286 383.786 121.334 386.662C147.838 411.694 176.438 460.532 204.523 502.96L204.527 502.953ZM248.481 494.023H201.764C182.251 463.794 174.379 451.243 160.681 431.375C165.975 430.849 248.519 422.131 248.519 422.131C248.519 504.244 248.532 490.622 248.478 494.03L248.481 494.023Z" fill="black"/>
<path d="M266.448 495.901C267.131 493.354 286.596 419.463 286.596 419.405C286.91 418.224 285.319 417.145 284.441 418.152C271.413 433.055 262.887 451.353 259.853 470.914C258.569 479.68 258.648 489.14 264.293 496.458C264.452 496.615 264.65 496.728 264.867 496.786C265.083 496.845 265.311 496.846 265.528 496.79C265.745 496.734 265.943 496.622 266.105 496.467C266.266 496.311 266.384 496.116 266.448 495.901ZM262.326 471.61C264.924 454.422 271.904 438.192 282.594 424.483C282.594 424.483 264.716 492.309 264.679 492.442C261.635 485.943 260.809 478.625 262.326 471.61Z" fill="black"/>
<path d="M135.198 521.771C134.906 521.863 134.657 522.055 134.493 522.313C134.33 522.571 134.262 522.878 134.303 523.181C134.344 523.484 134.49 523.763 134.716 523.968C134.942 524.174 135.234 524.293 135.539 524.304L223.141 526.012C223.393 526.005 223.638 525.926 223.846 525.783C224.054 525.64 224.216 525.44 224.312 525.207C224.409 524.974 224.435 524.718 224.389 524.47C224.343 524.222 224.226 523.992 224.052 523.809C202.336 505.775 161.305 511.273 135.198 521.771ZM142.369 521.859C164.908 514.097 199.4 509.989 219.162 523.365L142.369 521.859Z" fill="black"/>
<path d="M245.501 320.484C241.241 318.406 236.432 317.734 231.765 318.565C230.13 318.834 230.823 321.32 232.448 321.051C236.67 320.387 240.993 321.058 244.814 322.97C246.365 323.574 247.037 321.085 245.501 320.484Z" fill="black"/>
<path d="M253.179 341.885C253.335 341.597 253.376 341.26 253.293 340.943C253.21 340.626 253.009 340.352 252.732 340.178C249.71 338.385 246.424 337.08 242.996 336.312C241.377 335.97 240.684 338.446 242.313 338.801C245.514 339.543 248.587 340.758 251.431 342.404C251.58 342.486 251.743 342.537 251.912 342.555C252.08 342.573 252.251 342.557 252.413 342.509C252.576 342.461 252.727 342.381 252.859 342.274C252.99 342.167 253.099 342.035 253.179 341.885Z" fill="black"/>
<path d="M179.339 402.392H167.158C166.827 402.409 166.516 402.552 166.288 402.792C166.06 403.032 165.933 403.35 165.933 403.681C165.933 404.012 166.06 404.33 166.288 404.57C166.516 404.81 166.827 404.953 167.158 404.97H179.339C179.669 404.953 179.981 404.81 180.208 404.57C180.436 404.33 180.563 404.012 180.563 403.681C180.563 403.35 180.436 403.032 180.208 402.792C179.981 402.552 179.669 402.409 179.339 402.392Z" fill="black"/>
<path d="M117.445 311.813C119.866 312.399 122.407 312.252 124.745 311.391C127.083 310.53 129.113 308.994 130.576 306.977C132.015 305.173 132.786 302.928 132.76 300.62C132.734 298.313 131.912 296.085 130.432 294.314C129.383 293.134 128.11 292.174 126.687 291.489C125.264 290.804 123.72 290.407 122.143 290.323C120.566 290.238 118.988 290.466 117.5 290.995C116.012 291.524 114.643 292.342 113.473 293.403C111.986 294.646 110.866 296.273 110.236 298.107C109.605 299.941 109.489 301.912 109.897 303.808C110.306 305.703 111.226 307.451 112.556 308.862C113.886 310.273 115.577 311.293 117.445 311.813ZM112.357 300.137C112.7 298.59 113.431 297.156 114.48 295.969C115.529 294.782 116.863 293.88 118.355 293.349C119.848 292.817 121.451 292.674 123.014 292.931C124.578 293.188 126.05 293.838 127.294 294.82C128.722 295.912 129.703 297.487 130.052 299.251C130.401 301.015 130.094 302.845 129.189 304.399C128.203 306.215 126.68 307.682 124.829 308.599C122.977 309.516 120.887 309.838 118.845 309.521C117.802 309.333 116.807 308.94 115.916 308.366C115.025 307.792 114.256 307.048 113.653 306.176C113.051 305.304 112.626 304.322 112.403 303.286C112.181 302.249 112.165 301.179 112.357 300.137Z" fill="black"/>
<path d="M112.806 288.928C116.563 288.727 120.319 288.478 124.042 287.948C126.972 287.624 129.839 286.869 132.548 285.708C135.451 284.448 137.935 282.386 139.707 279.765C141.48 277.143 142.469 274.071 142.558 270.907C142.09 264.497 134.444 262.319 128.631 265.355C123.138 268.833 118.754 273.809 115.996 279.698C114.63 282.163 113.09 284.53 111.703 286.985C111.592 287.181 111.534 287.402 111.534 287.628C111.534 287.853 111.592 288.074 111.703 288.27C111.814 288.466 111.975 288.629 112.168 288.745C112.361 288.86 112.581 288.923 112.806 288.928ZM132.395 266.731C133.419 266.493 134.481 266.476 135.512 266.682C136.543 266.889 137.518 267.313 138.371 267.926C141.124 269.866 140.079 274.073 138.371 277.031C136.862 279.462 134.784 281.489 132.317 282.939C129.85 284.388 127.067 285.215 124.209 285.349C121.203 285.752 118.183 286.046 115.156 286.231C119.53 278.875 124.243 268.626 132.395 266.717V266.731Z" fill="black"/>
<path d="M201.662 217.702L215.145 228.125C215.391 228.358 215.718 228.487 216.057 228.487C216.396 228.487 216.722 228.358 216.968 228.125C217.21 227.883 217.346 227.555 217.346 227.213C217.346 226.871 217.21 226.543 216.968 226.301C216.665 226.066 207.898 219.284 203.824 216.125L216.968 205.955C217.21 205.712 217.346 205.384 217.346 205.041C217.346 204.699 217.21 204.37 216.968 204.128C216.724 203.892 216.397 203.76 216.057 203.76C215.717 203.76 215.39 203.892 215.145 204.128C215.145 204.128 201.307 214.776 200.857 215.186C199.832 216.275 200.874 217.095 201.662 217.702Z" fill="black"/>
<path d="M201.665 184.085L215.147 194.504C215.393 194.738 215.719 194.869 216.059 194.869C216.398 194.869 216.725 194.738 216.971 194.504C217.212 194.262 217.348 193.934 217.348 193.592C217.348 193.25 217.212 192.922 216.971 192.68L203.809 182.507L216.953 172.334C217.195 172.092 217.331 171.764 217.331 171.422C217.331 171.08 217.195 170.752 216.953 170.51C216.709 170.273 216.382 170.141 216.042 170.141C215.701 170.141 215.374 170.273 215.13 170.51C210.847 173.822 201.292 181.158 200.842 181.564C199.834 182.654 200.876 183.46 201.665 184.085Z" fill="black"/>
<path d="M201.665 149.696L215.147 160.115C215.393 160.349 215.719 160.48 216.059 160.48C216.398 160.48 216.725 160.349 216.971 160.115C217.212 159.873 217.348 159.545 217.348 159.203C217.348 158.861 217.212 158.533 216.971 158.291L203.809 148.118L216.953 137.945C217.195 137.703 217.331 137.375 217.331 137.033C217.331 136.691 217.195 136.363 216.953 136.121C216.708 135.885 216.382 135.753 216.042 135.753C215.702 135.753 215.375 135.885 215.13 136.121C210.847 139.434 201.292 146.769 200.842 147.179C199.834 148.265 200.876 149.084 201.665 149.696Z" fill="black"/>
<path d="M320.066 204.127C319.825 204.37 319.689 204.699 319.689 205.041C319.689 205.383 319.825 205.712 320.066 205.955L333.214 216.124L320.066 226.298C319.825 226.541 319.69 226.869 319.69 227.211C319.69 227.553 319.825 227.882 320.066 228.125C320.312 228.36 320.638 228.491 320.978 228.491C321.318 228.491 321.645 228.36 321.89 228.125C321.89 228.125 335.728 217.477 336.178 217.067C337.203 215.978 336.148 215.161 335.355 214.55L321.89 204.127C321.643 203.895 321.317 203.765 320.978 203.765C320.639 203.765 320.313 203.895 320.066 204.127Z" fill="black"/>
<path d="M320.161 182.497L307.009 192.681C306.768 192.923 306.632 193.252 306.632 193.594C306.632 193.937 306.768 194.265 307.009 194.508C307.255 194.743 307.581 194.874 307.921 194.874C308.261 194.874 308.588 194.743 308.833 194.508C313.115 191.192 322.671 183.86 323.121 183.45C324.146 182.361 323.087 181.541 322.298 180.933L308.833 170.511C308.586 170.278 308.26 170.148 307.921 170.148C307.582 170.148 307.256 170.278 307.009 170.511C306.889 170.63 306.793 170.772 306.728 170.928C306.663 171.085 306.629 171.253 306.629 171.422C306.629 171.592 306.663 171.76 306.728 171.916C306.793 172.073 306.889 172.215 307.009 172.334L320.161 182.497Z" fill="black"/>
<path d="M292.467 148.118L279.319 158.291C279.078 158.533 278.942 158.861 278.942 159.203C278.942 159.545 279.078 159.873 279.319 160.115C279.563 160.352 279.89 160.485 280.231 160.485C280.571 160.485 280.898 160.352 281.143 160.115C285.425 156.802 294.98 149.47 295.431 149.06C296.455 147.971 295.397 147.151 294.611 146.54L281.143 136.121C280.896 135.888 280.57 135.759 280.231 135.759C279.892 135.759 279.566 135.888 279.319 136.121C279.078 136.363 278.942 136.691 278.942 137.033C278.942 137.375 279.078 137.703 279.319 137.945L292.467 148.118Z" fill="black"/>
<path d="M255.165 157.684C257.19 158.425 259.389 158.549 261.484 158.04C263.579 157.531 265.476 156.413 266.936 154.826C268.396 153.24 269.352 151.256 269.685 149.126C270.018 146.996 269.711 144.815 268.805 142.859C267.898 140.903 266.432 139.259 264.592 138.136C262.752 137.013 260.62 136.46 258.466 136.549C256.312 136.637 254.232 137.361 252.489 138.631C250.747 139.901 249.42 141.659 248.677 143.682C248.183 145.028 247.959 146.457 248.017 147.889C248.076 149.321 248.417 150.727 249.019 152.028C249.622 153.328 250.475 154.497 251.529 155.467C252.584 156.438 253.819 157.191 255.165 157.684ZM256.101 139.605C257.359 139.155 258.708 139.014 260.032 139.194C261.356 139.374 262.618 139.87 263.711 140.641C264.803 141.411 265.694 142.432 266.309 143.619C266.924 144.806 267.245 146.123 267.244 147.459C267.232 149.175 266.697 150.846 265.711 152.25C264.724 153.653 263.332 154.722 261.722 155.314C259.643 156.051 257.358 155.934 255.365 154.989C253.373 154.044 251.836 152.347 251.092 150.271C250.348 148.195 250.458 145.909 251.397 143.913C252.336 141.918 254.027 140.376 256.101 139.625V139.605Z" fill="black"/>
<path d="M154.7 118.141C153.977 119.63 156.203 120.938 156.927 119.446C160.305 112.492 165.632 106.671 172.26 102.692C172.55 102.509 172.754 102.219 172.83 101.885C172.906 101.552 172.846 101.202 172.663 100.913C172.491 100.632 172.217 100.43 171.899 100.346C171.581 100.263 171.243 100.306 170.956 100.465C163.884 104.589 158.219 110.749 154.7 118.141Z" fill="black"/>
<path d="M149.6 115.795C153.716 106.579 160.997 99.1414 170.124 94.8306C171.63 94.1476 170.319 91.904 168.823 92.6041C159.28 97.0855 151.666 104.849 147.37 114.477C146.704 115.997 148.927 117.312 149.6 115.795Z" fill="black"/>
<path d="M33.0956 398.356C32.7776 398.28 32.4426 398.327 32.1585 398.489C31.8744 398.651 31.6624 398.915 31.5656 399.227C27.2392 414.16 25.7086 429.765 27.051 445.254C27.1944 446.893 29.783 446.911 29.6293 445.254C28.3394 429.996 29.8439 414.631 34.0688 399.913C34.1092 399.747 34.1159 399.574 34.0886 399.406C34.0613 399.237 34.0006 399.075 33.9099 398.93C33.8192 398.785 33.7005 398.659 33.5606 398.561C33.4208 398.462 33.2627 398.393 33.0956 398.356Z" fill="black"/>
<path d="M23.3256 398.621C16.8371 414.832 16.2873 428.745 17.7899 445.253C17.9368 446.892 20.5219 446.906 20.3682 445.253C18.8315 428.331 19.634 415.054 25.8118 399.307C26.4196 397.76 23.9267 397.091 23.3256 398.621Z" fill="black"/>
<path d="M347.6 356.962C347.611 357.288 347.745 357.598 347.976 357.828C348.207 358.059 348.517 358.194 348.843 358.205H380.343C380.673 358.188 380.984 358.045 381.212 357.805C381.44 357.565 381.567 357.247 381.567 356.916C381.567 356.585 381.44 356.267 381.212 356.027C380.984 355.787 380.673 355.643 380.343 355.626H348.843C348.673 355.632 348.506 355.671 348.352 355.741C348.197 355.811 348.058 355.911 347.943 356.035C347.827 356.159 347.737 356.305 347.679 356.464C347.62 356.623 347.593 356.792 347.6 356.962Z" fill="black"/>
<path d="M349.627 351.202L369.461 335.67C370.769 334.646 368.932 332.833 367.638 333.847L347.803 349.375C346.495 350.399 348.329 352.213 349.627 351.202Z" fill="black"/>
<path d="M349.752 364.195C348.462 363.171 346.621 364.998 347.929 366.019L365.632 379.867C366.926 380.891 368.764 379.064 367.456 378.04L349.752 364.195Z" fill="black"/>
</svg>
