<svg width="242" height="34" viewBox="0 0 242 34" fill="none" xmlns="http://www.w3.org/2000/svg">
<path d="M242 19.2526V26.7611H231.258V19.2526H242Z" fill="white"/>
<path d="M207.12 34V27.6081H211.768C212.402 27.6081 212.72 27.3899 212.72 26.9536V26.915C212.72 26.6327 212.428 25.9396 211.844 24.8358L202.168 6.04529H213.215L218.929 19.3681L224.224 6.04529H234.508L224.643 27.6466C223.627 29.8799 222.509 31.4972 221.291 32.4983C220.072 33.4994 218.561 34 216.758 34H207.12Z" fill="white"/>
<path d="M185.194 6.04531V9.85732C185.575 9.29257 186.045 8.74067 186.604 8.2016C187.188 7.63686 188.14 7.05928 189.461 6.46887C190.781 5.87846 192.216 5.58325 193.765 5.58325H194.222C195.847 5.58325 197.244 5.85279 198.412 6.39186C199.58 6.90526 200.469 7.62402 201.079 8.54814C201.688 9.44659 202.133 10.4092 202.412 11.436C202.691 12.4372 202.831 13.541 202.831 14.7475V16.8267H192.775V16.0951C192.775 14.8373 192.47 13.8233 191.861 13.0532C191.276 12.2575 190.35 11.8596 189.08 11.8596C187.886 11.8596 186.947 12.2703 186.261 13.0917C185.601 13.9132 185.271 14.9913 185.271 16.3262V26.761H174.91V6.04531H185.194Z" fill="white"/>
<path d="M157.168 27.3387H154.35C151.835 27.3387 149.626 27.1076 147.722 26.6456C145.817 26.1578 144.306 25.5674 143.189 24.8743C142.097 24.1556 141.208 23.2956 140.522 22.2945C139.837 21.2934 139.379 20.3436 139.151 19.4451C138.922 18.5467 138.808 17.5969 138.808 16.5957V15.9797C138.808 15.0042 138.922 14.0801 139.151 13.2073C139.379 12.3088 139.824 11.3719 140.484 10.3964C141.17 9.42096 142.059 8.58669 143.151 7.8936C144.243 7.2005 145.741 6.62293 147.645 6.16087C149.575 5.6988 151.797 5.46777 154.311 5.46777H157.206C167.517 5.46777 172.672 8.9589 172.672 15.9412V16.6343C172.672 17.6611 172.583 18.6108 172.405 19.4836C172.227 20.3307 171.808 21.2677 171.148 22.2945C170.513 23.3213 169.662 24.1812 168.596 24.8743C167.529 25.5674 166.018 26.1578 164.063 26.6456C162.108 27.1076 159.809 27.3387 157.168 27.3387ZM155.797 11.3205H155.759C153.423 11.3205 151.759 11.7954 150.769 12.7452C149.804 13.6694 149.321 14.8117 149.321 16.1722V16.3262C149.321 17.7124 149.804 18.9189 150.769 19.9457C151.759 20.9468 153.423 21.4474 155.759 21.4474H155.797C158.083 21.4474 159.72 20.934 160.711 19.9072C161.701 18.8547 162.196 17.6611 162.196 16.3262V16.1722C162.196 14.8117 161.701 13.6694 160.711 12.7452C159.746 11.7954 158.108 11.3205 155.797 11.3205Z" fill="white"/>
<path d="M137.293 26.761H128.532C124.901 26.761 123.085 24.7973 123.085 20.8698V12.3986H119.162V6.0453H123.085V0H133.37V6.0453H137.293V12.3986H133.37V18.521C133.37 19.1884 133.471 19.6633 133.675 19.9456C133.903 20.2023 134.373 20.3307 135.084 20.3307H137.293V26.761Z" fill="white"/>
<path d="M86.4507 26.761V6.04531H96.7355V9.70329C97.1164 9.34391 97.4084 9.07438 97.6116 8.89469C97.8401 8.68933 98.3099 8.34278 99.021 7.85505C99.7574 7.36732 100.468 6.9951 101.154 6.7384C101.84 6.45603 102.729 6.19933 103.821 5.9683C104.938 5.7116 106.106 5.58325 107.325 5.58325H107.554C109.382 5.58325 110.969 5.83995 112.315 6.35335C113.686 6.84108 114.74 7.49567 115.477 8.31711C116.213 9.11288 116.746 9.94716 117.076 10.8199C117.432 11.6671 117.61 12.5398 117.61 13.4383V26.761H107.211V16.8652C107.211 15.402 106.804 14.2469 105.992 13.3998C105.205 12.527 103.96 12.0906 102.259 12.0906C100.557 12.0906 99.2241 12.5527 98.2591 13.4768C97.2941 14.4009 96.8117 15.6202 96.8117 17.1348V26.761H86.4507Z" fill="white"/>
<path d="M68.0259 10.5504C64.6484 10.5504 62.6804 11.5901 62.1217 13.6694H73.9301C73.4984 11.5901 71.5304 10.5504 68.0259 10.5504ZM84.2149 19.2141V19.2911C84.2149 19.9842 84.126 20.6388 83.9483 21.2549C83.7705 21.8709 83.3642 22.5769 82.7293 23.3726C82.0945 24.1427 81.2565 24.8102 80.2153 25.3749C79.1741 25.914 77.6885 26.376 75.7585 26.7611C73.854 27.1461 71.6319 27.3387 69.0925 27.3387H67.0736C64.6611 27.3387 62.528 27.1205 60.6742 26.6841C58.8204 26.2477 57.3475 25.6829 56.2556 24.9899C55.1636 24.2968 54.2748 23.4753 53.5891 22.5255C52.9035 21.5501 52.4337 20.6003 52.1797 19.6762C51.9512 18.7264 51.8369 17.7252 51.8369 16.6728V15.9027C51.8369 8.94607 56.8777 5.46777 66.9593 5.46777H69.0544C70.9082 5.46777 72.5842 5.59613 74.0825 5.85283C75.6062 6.08386 76.8886 6.40473 77.9298 6.81545C78.971 7.22617 79.8725 7.73957 80.6343 8.35566C81.4215 8.97174 82.0437 9.60065 82.5008 10.2424C82.9579 10.8585 83.3261 11.5644 83.6055 12.3602C83.8848 13.1303 84.0626 13.8619 84.1387 14.555C84.2403 15.2224 84.2911 15.954 84.2911 16.7498V17.9049H62.0074C62.3629 20.4463 64.4326 21.7169 68.2164 21.7169H68.2545C69.1687 21.7169 69.9813 21.6399 70.6923 21.4859C71.4288 21.3319 71.9875 21.165 72.3684 20.9853C72.7747 20.78 73.1048 20.5489 73.3588 20.2922C73.6127 20.0355 73.7778 19.8302 73.854 19.6762C73.9301 19.4965 73.9809 19.3424 74.0063 19.2141H84.2149Z" fill="white"/>
<path d="M10.361 26.761H0V6.04531H10.2848V9.7418C13.0274 6.96943 16.4176 5.58325 20.4553 5.58325H20.6838C24.7724 5.58325 27.5911 7.00794 29.1402 9.85732C32.1622 7.00794 35.7428 5.58325 39.8821 5.58325H40.1487C41.8756 5.58325 43.3865 5.83995 44.6817 6.35335C45.9768 6.84108 46.9672 7.49567 47.6528 8.31711C48.3385 9.13855 48.8337 9.98567 49.1384 10.8584C49.4685 11.7056 49.6336 12.5655 49.6336 13.4383V26.761H39.2726V16.8267C39.2726 13.6693 37.8632 12.0906 35.0444 12.0906C33.47 12.0906 32.2383 12.5655 31.3495 13.5153C30.4607 14.4394 30.0163 15.6331 30.0163 17.0963V26.761H19.6173V16.8267C19.6173 13.6693 18.2079 12.0906 15.3891 12.0906C13.8146 12.0906 12.583 12.5655 11.6942 13.5153C10.8054 14.4394 10.361 15.6331 10.361 17.0963V26.761Z" fill="white"/>
</svg>
