<svg width="32" height="32" viewBox="0 0 32 32" fill="none" xmlns="http://www.w3.org/2000/svg">
<path d="M16.001 0C11.6557 0 11.1103 0.0190003 9.40367 0.096667C7.70033 0.174667 6.53767 0.444333 5.52033 0.84C4.468 1.24867 3.57533 1.79533 2.686 2.685C1.796 3.57433 1.24933 4.467 0.839333 5.519C0.442667 6.53667 0.172667 7.69967 0.096 9.40233C0.02 11.109 0 11.6547 0 16C0 20.3453 0.0193336 20.889 0.096667 22.5957C0.175 24.299 0.444667 25.4617 0.84 26.479C1.249 27.5313 1.79567 28.424 2.68533 29.3133C3.57433 30.2033 4.467 30.7513 5.51867 31.16C6.53667 31.5557 7.69967 31.8253 9.40267 31.9033C11.1093 31.981 11.6543 32 15.9993 32C20.345 32 20.8887 31.981 22.5953 31.9033C24.2987 31.8253 25.4627 31.5557 26.4807 31.16C27.5327 30.7513 28.424 30.2033 29.313 29.3133C30.203 28.424 30.7497 27.5313 31.1597 26.4793C31.553 25.4617 31.823 24.2987 31.903 22.596C31.9797 20.8893 31.9997 20.3453 31.9997 16C31.9997 11.6547 31.9797 11.1093 31.903 9.40267C31.823 7.69933 31.553 6.53667 31.1597 5.51933C30.7497 4.467 30.203 3.57433 29.313 2.685C28.423 1.795 27.533 1.24833 26.4797 0.84C25.4597 0.444333 24.2963 0.174667 22.593 0.096667C20.8863 0.0190003 20.343 0 15.9963 0H16.001ZM14.5657 2.88333C14.9917 2.88267 15.467 2.88333 16.001 2.88333C20.273 2.88333 20.7793 2.89867 22.4663 2.97533C24.0263 3.04667 24.873 3.30733 25.437 3.52633C26.1837 3.81633 26.716 4.163 27.2757 4.723C27.8357 5.283 28.1823 5.81633 28.473 6.563C28.692 7.12633 28.953 7.973 29.024 9.533C29.1007 11.2197 29.1173 11.7263 29.1173 15.9963C29.1173 20.2663 29.1007 20.773 29.024 22.4597C28.9527 24.0197 28.692 24.8663 28.473 25.4297C28.183 26.1763 27.8357 26.708 27.2757 27.2677C26.7157 27.8277 26.184 28.1743 25.437 28.4643C24.8737 28.6843 24.0263 28.9443 22.4663 29.0157C20.7797 29.0923 20.273 29.109 16.001 29.109C11.7287 29.109 11.2223 29.0923 9.53567 29.0157C7.97567 28.9437 7.129 28.683 6.56467 28.464C5.818 28.174 5.28467 27.8273 4.72467 27.2673C4.16467 26.7073 3.818 26.1753 3.52733 25.4283C3.30833 24.865 3.04733 24.0183 2.97633 22.4583C2.89967 20.7717 2.88433 20.265 2.88433 15.9923C2.88433 11.7197 2.89967 11.2157 2.97633 9.529C3.04767 7.969 3.30833 7.12233 3.52733 6.55833C3.81733 5.81167 4.16467 5.27833 4.72467 4.71833C5.28467 4.15833 5.818 3.81167 6.56467 3.521C7.12867 3.301 7.97567 3.041 9.53567 2.96933C11.0117 2.90267 11.5837 2.88267 14.5657 2.87933V2.88333ZM24.5417 5.54C24.1619 5.54 23.7907 5.65262 23.4749 5.86362C23.1591 6.07463 22.9131 6.37453 22.7678 6.7254C22.6225 7.07627 22.5845 7.46236 22.6586 7.83482C22.7327 8.20728 22.9157 8.54939 23.1843 8.81788C23.4528 9.08637 23.795 9.26918 24.1675 9.34319C24.54 9.4172 24.9261 9.37908 25.2769 9.23366C25.6277 9.08823 25.9275 8.84204 26.1384 8.52621C26.3493 8.21038 26.4618 7.8391 26.4617 7.45933C26.4617 6.39933 25.6017 5.53933 24.5417 5.53933V5.54ZM16.001 7.78333C11.4633 7.78333 7.78433 11.4623 7.78433 16C7.78433 20.5377 11.4633 24.215 16.001 24.215C20.5387 24.215 24.2167 20.5377 24.2167 16C24.2167 11.4623 20.5383 7.78333 16.0007 7.78333H16.001ZM16.001 10.6667C18.9463 10.6667 21.3343 13.0543 21.3343 16C21.3343 18.9453 18.9463 21.3333 16.001 21.3333C13.0553 21.3333 10.6677 18.9453 10.6677 16C10.6677 13.0543 13.0553 10.6667 16.001 10.6667Z" fill="white"/>
</svg>
