<svg width="24" height="24" viewBox="0 0 24 24" fill="none" xmlns="http://www.w3.org/2000/svg">
<path fill-rule="evenodd" clip-rule="evenodd" d="M1.64987 10.4721C8.09231 7.69481 12.3883 5.86384 14.5378 4.97921C20.675 2.4534 21.9503 2.01464 22.7815 2.00015C22.9643 1.99697 23.3731 2.0418 23.6379 2.25438C23.8614 2.43389 23.9229 2.67637 23.9524 2.84656C23.9818 3.01675 24.0185 3.40445 23.9893 3.70738C23.6568 7.16502 22.2177 15.5558 21.4856 19.4284C21.1758 21.067 20.5658 21.6165 19.9753 21.6702C18.6919 21.7871 17.7174 20.8311 16.4744 20.0248C14.5294 18.7633 13.4305 17.9779 11.5425 16.7469C9.36064 15.3242 10.7751 14.5422 12.0185 13.2643C12.344 12.9299 17.9985 7.84087 18.1079 7.37922C18.1216 7.32148 18.1343 7.10626 18.0051 6.99262C17.8759 6.87897 17.6851 6.91783 17.5475 6.94874C17.3524 6.99255 14.2452 9.02468 8.22584 13.0451C7.34386 13.6444 6.545 13.9364 5.82924 13.9211C5.04018 13.9042 3.52233 13.4796 2.39397 13.1167C1.00999 12.6715 -0.0899676 12.4362 0.00581423 11.6802C0.0557033 11.2864 0.603723 10.8837 1.64987 10.4721Z" fill="white"/>
</svg>
