<svg width="32" height="32" viewBox="0 0 32 32" fill="none" xmlns="http://www.w3.org/2000/svg">
<g clip-path="url(#clip0_346_5471)">
<path d="M13.5959 30.8082L13.5958 30.8082C6.45512 29.6587 1 23.4647 1 15.9995C1 7.71553 7.7157 1 16 1C24.2843 1 31 7.71553 31 15.9995V16.0005C31 23.5753 25.3843 29.8392 18.0899 30.8557C17.4075 30.9507 16.7092 31 16 31C15.1811 31 14.3784 30.9343 13.5959 30.8082Z" stroke="white" stroke-width="2"/>
<path d="M9.05571 11.4113C8.69311 11.0745 8.51221 10.6579 8.51221 10.1622C8.51221 9.66645 8.69311 9.23102 9.05571 8.89428C9.41831 8.55753 9.88506 8.38916 10.4575 8.38916C11.03 8.38916 11.478 8.55753 11.8398 8.89428C12.2024 9.23102 12.3833 9.65392 12.3833 10.1622C12.3833 10.6704 12.2024 11.0745 11.8398 11.4113C11.4772 11.748 11.0167 11.9164 10.4575 11.9164C9.89837 11.9164 9.41831 11.748 9.05571 11.4113ZM12.0779 13.3425V23.6617H8.81763V13.3425H12.0779Z" fill="#FEFFFC"/>
<path d="M22.9342 14.3612C23.6445 15.1326 24 16.1922 24 17.5407V23.48H20.9027V17.9597C20.9027 17.2799 20.7265 16.7513 20.3741 16.3746C20.0216 15.998 19.5478 15.81 18.9526 15.81C18.3575 15.81 17.8836 15.9987 17.5312 16.3746C17.1788 16.7513 17.0026 17.2799 17.0026 17.9597V23.48H13.8872V13.3142H17.0026V14.6627C17.3182 14.2132 17.7434 13.8585 18.2783 13.5969C18.8124 13.3361 19.4139 13.2053 20.0819 13.2053C21.2723 13.2053 22.2231 13.5914 22.9334 14.362L22.9342 14.3612Z" fill="#FEFFFC"/>
</g>
<defs>
<clipPath id="clip0_346_5471">
<rect width="32" height="32" fill="white"/>
</clipPath>
</defs>
</svg>
