<svg width="32" height="32" viewBox="0 0 32 32" fill="none" xmlns="http://www.w3.org/2000/svg">
<path d="M1 16C1 7.71573 7.71573 1 16 1C24.2843 1 31 7.71573 31 16C31 24.2843 24.2843 31 16 31C7.71573 31 1 24.2843 1 16Z" stroke="white" stroke-width="2"/>
<path fill-rule="evenodd" clip-rule="evenodd" d="M8.3849 15.8532C12.4408 14.0861 15.1454 12.9211 16.4987 12.3582C20.3625 10.7511 21.1653 10.472 21.6886 10.4627C21.8037 10.4607 22.0611 10.4892 22.2278 10.6245C22.3685 10.7387 22.4072 10.893 22.4258 11.0013C22.4443 11.1096 22.4674 11.3562 22.449 11.549C22.2397 13.749 21.3337 19.0878 20.8728 21.5518C20.6777 22.5944 20.2937 22.944 19.9219 22.9782C19.114 23.0525 18.5004 22.4442 17.7179 21.9313C16.4934 21.1286 15.8016 20.6289 14.613 19.8456C13.2393 18.9404 14.1298 18.4429 14.9126 17.6298C15.1175 17.417 18.6774 14.179 18.7463 13.8853C18.7549 13.8485 18.7629 13.7116 18.6816 13.6393C18.6002 13.567 18.4801 13.5917 18.3935 13.6114C18.2707 13.6392 16.3145 14.9322 12.5249 17.4903C11.9696 17.8716 11.4667 18.0574 11.0161 18.0476C10.5193 18.0369 9.56373 17.7667 8.85335 17.5358C7.98205 17.2526 7.28955 17.1029 7.34985 16.6218C7.38126 16.3713 7.72627 16.1151 8.3849 15.8532Z" fill="white"/>
</svg>
